<svg height="512pt" viewBox="-26 0 512 512" width="512pt" xmlns="http://www.w3.org/2000/svg"><g fill-rule="evenodd"><path d="m103.769531 237.273438c30.9375 0 56.109375-25.167969 56.109375-56.105469s-25.171875-56.105469-56.109375-56.105469-56.105469 25.167969-56.105469 56.105469 25.167969 56.105469 56.105469 56.105469zm0-92.210938c19.910157 0 36.109375 16.199219 36.109375 36.105469 0 19.910156-16.199218 36.109375-36.109375 36.109375-19.910156 0-36.105469-16.199219-36.105469-36.109375 0-19.910157 16.195313-36.105469 36.105469-36.105469zm0 0"/><path d="m460.089844 500.46875-76.15625-492c-.753906-4.871094-4.949219-8.46875-9.882813-8.46875h-231.527343c-4.933594 0-9.128907 3.597656-9.882813 8.46875l-10.910156 70.492188c-5.835938-1.023438-11.835938-1.5625-17.960938-1.5625-57.21875 0-103.769531 46.550781-103.769531 103.769531 0 20.699219 4.523438 43.078125 13.441406 66.519531 1.964844 5.160156 7.738282 7.753906 12.902344 5.789062 5.160156-1.964843 7.753906-7.742187 5.789062-12.902343-8.050781-21.160157-12.132812-41.148438-12.132812-59.40625 0-46.191407 37.578125-83.769531 83.769531-83.769531 46.191407 0 83.769531 37.578124 83.769531 83.769531 0 58.59375-42.207031 126.164062-83.769531 167.578125-11.992187-11.953125-23.757812-25.808594-34.375-40.519532-3.234375-4.476562-9.484375-5.484374-13.960937-2.253906-4.480469 3.230469-5.488282 9.484375-2.257813 13.960938 8.214844 11.375 17.09375 22.28125 26.253907 32.292968l-22.949219 148.242188c-.445313 2.886719.390625 5.820312 2.289062 8.039062 1.902344 2.214844 4.675781 3.492188 7.59375 3.492188h383.847657c2.917968 0 5.691406-1.277344 7.59375-3.492188 1.898437-2.21875 2.734374-5.152343 2.285156-8.039062zm-191.804688-8.46875v-44.667969c0-5.523437-4.476562-10-10-10-5.523437 0-10 4.476563-10 10v44.667969h-170.253906l18.894531-122.082031c.011719.011719.023438.019531.035157.03125 1.921874 1.785156 4.363281 2.675781 6.808593 2.675781 2.445313 0 4.890625-.890625 6.808594-2.675781 24.898437-23.140625 48.171875-52.984375 65.53125-84.035157 20.5625-36.773437 31.429687-72.992187 31.429687-104.746093 0-44.054688-27.597656-81.777344-66.40625-96.808594l9.960938-64.359375h97.191406v44.667969c0 5.523437 4.476563 10 10 10 5.523438 0 10-4.476563 10-10v-44.667969h97.195313l73.0625 472zm0 0"/><path d="m258.285156 328c-5.523437 0-10 4.476562-10 10v54.667969c0 5.523437 4.476563 10 10 10 5.523438 0 10-4.476563 10-10v-54.667969c0-5.523438-4.476562-10-10-10zm0 0"/><path d="m258.285156 109.332031c-5.523437 0-10 4.476563-10 10v54.667969c0 5.523438 4.476563 10 10 10 5.523438 0 10-4.476562 10-10v-54.667969c0-5.523437-4.476562-10-10-10zm0 0"/><path d="m258.285156 218.667969c-5.523437 0-10 4.476562-10 10v54.667969c0 5.519531 4.476563 10 10 10 5.523438 0 10-4.480469 10-10v-54.667969c0-5.523438-4.476562-10-10-10zm0 0"/><path d="m39.777344 270.351562c-5.507813 0-10 4.492188-10 10 0 5.507813 4.492187 10 10 10 5.507812 0 10-4.492187 10-10 0-5.507812-4.492188-10-10-10zm0 0"/></g></svg>