<svg id="Capa_1" enable-background="new 0 0 511.191 511.191" height="512" viewBox="0 0 511.191 511.191" width="512" xmlns="http://www.w3.org/2000/svg"><path d="m275.065 56.466h28.796c4.143 0 7.5-3.358 7.5-7.5s-3.357-7.5-7.5-7.5h-28.796c-4.143 0-7.5 3.358-7.5 7.5s3.357 7.5 7.5 7.5z"/><path d="m425.462 360.41h-91.508c-4.143 0-7.5 3.358-7.5 7.5s3.357 7.5 7.5 7.5h91.508c4.143 0 7.5-3.358 7.5-7.5s-3.357-7.5-7.5-7.5z"/><path d="m291.872 410.012c-4.143 0-7.5 3.358-7.5 7.5s3.357 7.5 7.5 7.5h91.045c4.143 0 7.5-3.358 7.5-7.5s-3.357-7.5-7.5-7.5z"/><path d="m503.691 297.101h-128.532c2.999-8.591 1.066-18.551-5.792-25.325l-10.205-10.08s0 0-.001-.001l-49.152-49.152h102.685c4.143 0 7.5-3.358 7.5-7.5s-3.357-7.5-7.5-7.5h-117.654l-53.548-54.317c-2.608-2.646-6.101-3.971-9.595-3.919l-16.216-24.46c-2.289-3.453-6.943-4.395-10.396-2.106-3.452 2.289-4.396 6.943-2.106 10.396l15.346 23.147-63.634 48.833-139.751-137.9c-.122-.12-.209-.207-.098-.479.112-.272.235-.272.406-.272h140.232 3.298l27.615 41.652c2.289 3.453 6.944 4.395 10.395 2.107 3.453-2.289 4.396-6.943 2.107-10.395l-22.12-33.364h68.089c4.142 0 7.5-3.358 7.5-7.5s-3.358-7.5-7.5-7.5h-82.06-7.324-140.232c-6.289 0-11.896 3.76-14.283 9.578-2.387 5.818-1.038 12.433 3.439 16.85l140.352 138.492c-.156.625-.282 1.259-.345 1.906-.349 3.626.836 7.271 3.251 10l35.087 39.642c-.841 1.121-1.532 2.38-2.017 3.768l-4.965 14.226h-5.88c-4.142 0-7.5 3.358-7.5 7.5s3.358 7.5 7.5 7.5h.645l-2.155 6.175h-4.139c-4.142 0-7.5 3.358-7.5 7.5 0 3.779 2.798 6.896 6.433 7.415l-2.105 6.031h-2.828c-4.142 0-7.5 3.358-7.5 7.5 0 3.346 2.192 6.177 5.217 7.143l-15.165 43.449h-48.615c-20.634 0-37.422 16.788-37.422 37.422v21.686 15.275c0 10.588 8.614 19.202 19.201 19.202h331.6c4.143 0 7.5-3.358 7.5-7.5s-3.357-7.5-7.5-7.5h-181.513l4.022-4.022c3.313-3.313 3.878-8.351 1.696-12.252l16.591-16.591c4.561 1.367 9.715.255 13.312-3.342l16.34-16.34c4.585-4.585 5.134-11.703 1.647-16.895l15.568-15.569c1.826.91 3.852 1.391 5.951 1.391 3.568 0 6.924-1.39 9.449-3.914l16.925-16.926c2.524-2.524 3.915-5.88 3.915-9.45 0-2.396-.627-4.696-1.802-6.712l9.247-9.247c2.054 1.234 4.409 1.893 6.867 1.893 3.569 0 6.926-1.39 9.449-3.915.031-.031.063-.063.093-.094l10.297-10.667c.186.014.372.028.562.028h139.32c4.143 0 7.5-3.358 7.5-7.5s-3.357-7.501-7.499-7.501zm-253.111 32.488 37.79-37.215c1.301 2.056 2.824 4.019 4.573 5.855l9.305 9.773-79.772 79.772c2.379-22.018 12.301-42.623 28.104-58.185zm62.277-32.196-9.051-9.507c-8.266-8.682-8.101-22.122.376-30.598l14.679-14.679 24.39 24.39zm-114.413-44.587-19.464-21.991 72.001-56.598 27.448 27.842c-.387.651-.735 1.331-.998 2.061-13.172 36.527-39.033 52.467-78.987 48.686zm33.492-97.907 8.448 8.569-71.362 56.096-8.636-9.757zm-52.707 157.202h8.136c4.142 0 7.5-3.358 7.5-7.5s-3.358-7.5-7.5-7.5h-2.901l2.155-6.175h6.394c4.142 0 7.5-3.358 7.5-7.5s-3.358-7.5-7.5-7.5h-1.159l2.933-8.405c5.158.567 10.134.85 14.932.85 2.758 0 5.449-.105 8.087-.292l-19.397 61c-3.102 9.754-12.062 16.308-22.297 16.308h-8.501l4.307-12.339h9.447c4.142 0 7.5-3.358 7.5-7.5s-3.358-7.5-7.5-7.5h-4.211zm164.72-1.052-1.822-1.823c-2.93-2.929-7.679-2.929-10.606 0l-19.262 19.261c-1.407 1.406-2.197 3.314-2.197 5.303s.79 3.897 2.196 5.303l1.722 1.722-14.61 14.611-1.136-1.135c-2.93-2.929-7.677-2.928-10.606 0l-25.511 25.511c-2.929 2.929-2.929 7.678 0 10.606l2.321 2.321-14.034 14.034c-1.368-1.213-3.137-1.888-4.976-1.888-1.989 0-3.897.79-5.303 2.197l-25.804 25.804c-2.92 2.92-2.929 7.65-.025 10.581l-11.094 11.095c-.11.109-.261.172-.416.172h-128.631c-2.316 0-4.201-1.885-4.201-4.202v-7.775h36.295c4.142 0 7.5-3.358 7.5-7.5s-3.358-7.5-7.5-7.5h-36.295v-14.186c0-12.363 10.059-22.422 22.422-22.422h53.941 23.299c4.142 0 7.5-3.358 7.5-7.5s-3.358-7.5-7.5-7.5h-12.738l5.498-15.753h13.737c16.797 0 31.502-10.755 36.592-26.762l21.669-68.145c25.633-6.467 44.224-23.8 55.491-51.867l18.389 18.389-14.679 14.68c-8.267 8.266-11.831 19.334-10.674 30.028-.013.013-.028.024-.041.037l-42.806 42.155c-15.846 15.606-26.572 35.601-30.938 57.239h-10.406c-4.142 0-7.5 3.358-7.5 7.5s3.358 7.5 7.5 7.5h8.367l-1.177 13.21-23.398 23.398h-46.253c-4.142 0-7.5 3.358-7.5 7.5s3.358 7.5 7.5 7.5h49.36c1.989 0 3.897-.79 5.303-2.197l162.979-162.979 4.936 4.875c3.593 3.549 3.663 9.393.155 13.026z"/><path d="m375.208 253.506c0 4.142 3.357 7.5 7.5 7.5h67.384c4.143 0 7.5-3.358 7.5-7.5s-3.357-7.5-7.5-7.5h-67.384c-4.142 0-7.5 3.357-7.5 7.5z"/></svg>