<?xml version="1.0" encoding="utf-8"?>
<!-- Generator: Adobe Illustrator 19.2.0, SVG Export Plug-In . SVG Version: 6.00 Build 0)  -->
<svg version="1.1" id="Capa_1" xmlns="http://www.w3.org/2000/svg" xmlns:xlink="http://www.w3.org/1999/xlink" x="0px" y="0px"
	 viewBox="0 0 512 512" style="enable-background:new 0 0 512 512;" xml:space="preserve">
<style type="text/css">
	.st0{fill:#FFFFFF;}
</style>
<g>
	<g>
		<path d="M287.8,88.4c-4.1,0-7.5,3.4-7.5,7.5v7c0,4.1,3.4,7.5,7.5,7.5s7.5-3.4,7.5-7.5v-7C295.3,91.8,291.9,88.4,287.8,88.4z"/>
	</g>
</g>
<g>
	<g>
		<path class="st0" d="M504.5,469.5H461c23.6-15.9,39.2-42.8,39.2-73.4c0-48.7-39.6-88.4-88.4-88.4c-9.3,0-18.2,1.4-26.6,4.1
			l-6.6-16.1h31.1c15.7,0,28.5-12.8,28.5-28.5c0-15.7-12.8-28.5-28.5-28.5h-10.7c0-0.4,0.1-0.8,0.1-1.2v-11.7
			c0-9.5-7.7-17.3-17.3-17.3h-28.8l-46-25l-7.6-7.6c-2.9-2.9-7.7-2.9-10.6,0c-2.9,2.9-2.9,7.7,0,10.6l8.4,8.4
			c0.5,0.5,1.1,0.9,1.7,1.3l48.6,26.4c1.1,0.6,2.3,0.9,3.6,0.9h30.7c1.3,0,2.3,1,2.3,2.3v5.4c-3.8-3.4-8.8-5.4-14.2-5.4
			c-7.6,0-14.2,3.9-18,9.8l-58.8-27.1l-38.8-31.2c-3-2.4-7.3-2.2-10,0.5l-4.4,4.4c-14.3-8-23.1-23-23.1-39.5c0-3.2,0.3-6.4,1-9.5
			c2.5-2,5.6-3.1,8.8-3.1c3.8,0,7.3,1.5,9.9,4.1l28.3,28.3c2.9,2.9,7.7,2.9,10.6,0s2.9-7.7,0-10.6l-2.9-2.9
			c24.2-1.7,43.4-21.9,43.4-46.5V68.4c0-24.1-19.2-40.9-46.6-40.9c-27.9,0-46.6,16-46.6,39.8v1.1h-25.4c-4.1,0-7.5,3.4-7.5,7.5
			s3.4,7.5,7.5,7.5h25.4v19.2c0,4.4,0.6,8.6,1.8,12.6c-6.4,0.5-12.4,3-17.2,7.2c-0.4,0.3-97.3,97.2-97.3,97.2
			c-11.3,11.3-11.3,29.8,0,41.1l50.1,50.1l-16,16.6c-15.2-12.3-34.5-19.7-55.6-19.7C39.6,307.8,0,347.4,0,396.2
			c0,30.5,15.6,57.5,39.2,73.4H15c-4.1,0-7.5,3.4-7.5,7.5s3.4,7.5,7.5,7.5h489.5c4.1,0,7.5-3.4,7.5-7.5S508.6,469.5,504.5,469.5z
			 M300.8,102.6c0,17.4-14.2,31.6-31.6,31.6c-3.3,0-6.5-0.5-9.5-1.5V83.5h41.1V102.6z M237.6,67.3c0-5.8,2.3-24.8,31.6-24.8
			c14.6,0,31.6,6.8,31.6,25.9v0h-63.2L237.6,67.3L237.6,67.3z M237.6,83.5h7.1v38.2c-0.5-0.4-1.1-0.8-1.6-1.2
			c-3.5-5.1-5.5-11.2-5.5-17.8V83.5z M369.7,240.9c3.6,0,6.5,2.9,6.5,6.5s-2.9,6.5-6.5,6.5c-3.6,0-6.5-2.9-6.5-6.5
			C363.2,243.8,366.1,240.9,369.7,240.9z M314.7,242.6c0-2.8-0.4-5.5-1.2-8l35,16.1c1.6,10.3,10.5,18.2,21.2,18.2
			c9.6,0,17.8-6.4,20.5-15.1h19.4c7.5,0,13.5,6.1,13.5,13.5c0,7.5-6.1,13.5-13.5,13.5H285l20.2-18
			C311.3,257.8,314.7,250.4,314.7,242.6z M299.7,242.6c0,3.4-1.5,6.6-4.1,8.8c-0.1,0.1-0.1,0.1-0.2,0.2l-32.9,29.3h-19.1v-4.4
			l9.6-9.6c2.1-2.1,2.8-5.4,1.6-8.2c-1.2-2.8-3.9-4.6-6.9-4.6h-4.3v-22.9h44.9C294.6,231.2,299.7,236.3,299.7,242.6z M224.5,295.8
			h21l-19,16.9v-5.1C226.5,307,226.4,301.9,224.5,295.8z M239.7,390.8h-6.9c3.4-4,8.4-6.6,14-6.6c10.1,0,18.4,8.2,18.4,18.4
			c0,8.6-5.9,15.8-13.9,17.8c0.5-1.4,0.8-2.9,0.8-4.5v-12.6C252.2,396.4,246.6,390.8,239.7,390.8z M237.2,405.8v7.6h-44.3v-7.6
			H237.2z M211.5,307.8l0,80.8h-16.2l-6-72L209,297C211.3,302.1,211.5,307.4,211.5,307.8z M194,249.3l19.1-19.1h15.3v37.7h-15.7
			L194,249.3z M249.9,193.3l28.4,22.8h-38.8c-1.1-0.6-2.3-1-3.7-1h-7.8L249.9,193.3z M201.9,148.9c1.8,18.1,11.7,34.4,26.9,44.4
			l-45.4,45.4L147.8,203L201.9,148.9z M120.4,250.2c-2.6-2.6-4.1-6.2-4.1-9.9s1.5-7.3,4.1-9.9l16.7-16.7l67,67l-26.7,26.7
			L120.4,250.2z M170.5,321.5l1.7,1.7c0.8,0.8,1.8,1.4,2.8,1.8l5.3,63.7h-3.9c-1.6-19.4-9.5-36.9-21.7-50.7L170.5,321.5z
			 M144.3,348.8c9.3,11,15.5,24.8,17,39.9h-6.6c-1.5-13.3-6.9-25.4-15-35.1L144.3,348.8z M82.9,398.5c1.4,3.2,4.6,5.2,8.4,5.2h48.2
			c-3.6,25-25.2,44.3-51.2,44.3c-28.6,0-51.8-23.2-51.8-51.8s23.2-51.8,51.8-51.8c11.2,0,21.6,3.6,30.1,9.7L85,388.8
			C82.4,391.5,81.6,395.2,82.9,398.5z M106,388.7l23.3-24.2c5.4,6.9,9,15.2,10.3,24.2H106z M15,396.2c0-40.4,32.9-73.4,73.4-73.4
			c17,0,32.7,5.8,45.1,15.6l-4.6,4.8c-11.3-8.6-25.3-13.8-40.6-13.8c-36.8,0-66.8,30-66.8,66.8s30,66.8,66.8,66.8
			c34.3,0,62.6-26,66.4-59.3h6.6c-3.8,36.9-35.1,65.9-73,65.9C47.9,469.5,15,436.6,15,396.2z M137.5,469.5L137.5,469.5
			c21.7-14.6,36.6-38.4,38.9-65.9h1.5v12.3c0,6.9,5.6,12.5,12.5,12.5h35.3c5.8,4.7,13.1,7.5,21.1,7.5c18.4,0,33.4-15,33.4-33.4
			c0-7.3-2.4-14.1-6.4-19.6l5.6-5.8c2.9-3,2.8-7.7-0.2-10.6c-3-2.9-7.7-2.8-10.6,0.2l-6.1,6.3c-4.7-2.5-10-3.9-15.6-3.9
			c-7.6,0-14.7,2.6-20.3,6.9l0-43.3l41.6-37h68.6l-45.1,47c-2.9,3-2.8,7.7,0.2,10.6c3,2.9,7.7,2.8,10.6-0.2l55.1-57.4h4.7l9,21.8
			c-28.4,14.7-47.9,44.4-47.9,78.5c0,30.5,15.6,57.5,39.2,73.4H137.5z M338.4,396.2c0-27.9,15.6-52.2,38.6-64.6l2.5,6.1
			C359,349.1,345,371,345,396.2c0,36.8,30,66.8,66.8,66.8s66.8-30,66.8-66.8c0-7.8-1.3-15.4-4-22.7c-1.4-3.9-5.7-5.9-9.6-4.5
			c-3.9,1.4-5.9,5.7-4.5,9.6c2,5.6,3.1,11.6,3.1,17.6c0,28.6-23.2,51.8-51.8,51.8S360,424.7,360,396.2c0-18.9,10.2-35.4,25.3-44.5
			l19.5,47.4c1.2,2.9,4,4.6,6.9,4.6c1,0,1.9-0.2,2.9-0.6c2.9-1.2,4.6-4,4.6-6.9c0-1-0.2-1.9-0.6-2.9l-19.5-47.4
			c4-1,8.3-1.6,12.6-1.6c10.8,0,21.1,3.3,29.9,9.5c3.4,2.4,8.1,1.6,10.5-1.8c2.4-3.4,1.6-8.1-1.8-10.5c-11.3-8-24.7-12.3-38.6-12.3
			c-6.4,0-12.5,0.9-18.4,2.6l-2.5-6.1c6.6-2,13.6-3,20.9-3c40.4,0,73.4,32.9,73.4,73.4s-32.9,73.4-73.4,73.4
			C371.3,469.5,338.4,436.6,338.4,396.2z"/>
	</g>
</g>
</svg>
