<svg width="1082" height="822" viewBox="0 0 1082 822" fill="none" xmlns="http://www.w3.org/2000/svg">
<g clip-path="url(#clip0)">
<path d="M990.875 590.081L990.887 590.071C994.387 587.297 997.805 584.444 1001.14 581.512L1002.79 583.39L1001.14 581.512C1085.77 507.128 1103.74 382.11 1042.97 291.968C1028.62 270.691 1010.66 251.586 990.769 233.879L990.875 590.081ZM990.875 590.081L990.862 590.091C990.703 590.22 990.553 590.343 990.41 590.462C989.961 590.83 989.576 591.147 989.184 591.428L989.145 591.456L989.108 591.485C976.619 601.173 963.508 610.031 949.859 618.001L949.848 618.008C934.16 627.279 917.768 635.725 901.129 643.706L901.121 643.71C876.126 655.803 850.525 666.601 824.418 676.06L824.414 676.061L823.251 676.485C823.25 676.486 823.249 676.486 823.248 676.486C811.774 680.576 800.171 684.351 788.439 687.81C788.437 687.811 788.435 687.811 788.433 687.812L788.243 687.866L788.236 687.868L788.229 687.87C780.045 690.26 771.805 692.467 763.507 694.491L763.504 694.492L762.374 694.77C762.373 694.77 762.373 694.77 762.373 694.77C750.168 697.715 737.839 700.219 725.388 702.283C725.386 702.283 725.383 702.283 725.381 702.284L722.521 702.74C713.423 704.173 704.262 705.34 695.037 706.242C643.194 711.215 590.662 707.181 538.946 700.173C434.524 686.008 331.539 659.462 237.622 617.874L237.618 617.872C201.844 602.107 167.222 583.846 134.009 563.226C129.311 560.3 124.642 557.314 120.004 554.268C119.814 554.141 119.618 554.008 119.417 553.872C118.89 553.516 118.333 553.139 117.792 552.79C71.9907 522.17 31.0164 485.12 12.0043 438.624C-9.15853 386.833 4.49763 321.503 56.5281 291.07C74.5947 280.576 95.5227 274.812 116.984 270.01M990.875 590.081L116.984 270.01M906.058 169.783L906.062 169.786C907.704 170.909 909.345 172.039 910.987 173.175L910.993 173.18C914.359 175.495 917.705 177.823 921.031 180.164L921.042 180.172C923.515 181.894 925.982 183.629 928.442 185.378L928.443 185.378L933.741 189.14L933.753 189.148L937.046 191.517C955.016 204.495 972.651 217.91 988.973 232.282C988.975 232.284 988.976 232.285 988.978 232.286L990.768 233.877L907.47 167.72L906.058 169.783ZM906.058 169.783L902.705 167.498M906.058 169.783L902.705 167.498M902.705 167.498C832.378 119.701 756.409 75.7258 675.29 45.22L675.285 45.218C647.706 34.7753 619.504 26.0591 590.842 19.1198L590.841 19.1196C588.212 18.4823 585.547 17.8558 582.884 17.2596L582.873 17.2571C549.216 9.55855 514.954 4.79725 480.474 3.02682M902.705 167.498L676.17 42.88C648.494 32.4006 620.193 23.6537 591.43 16.69C588.79 16.05 586.11 15.42 583.43 14.82C549.632 7.08905 515.226 2.30775 480.6 0.529997M480.474 3.02682C480.475 3.02685 480.475 3.02689 480.476 3.02692L480.6 0.529997M480.474 3.02682C480.473 3.02678 480.473 3.02675 480.472 3.02671L480.6 0.529997M480.474 3.02682C443.573 1.19488 404.322 3.99414 371.808 17.1573L371.793 17.1633L371.779 17.169C370.334 17.7328 368.894 18.339 367.461 18.9877L367.441 18.9966L367.421 19.0051C355.81 24.0197 345.055 30.8208 335.548 39.1615M480.6 0.529997C443.54 -1.31 403.87 1.48 370.87 14.84C369.383 15.42 367.903 16.0433 366.43 16.71C354.576 21.8296 343.596 28.7737 333.89 37.29M335.548 39.1615C335.55 39.1598 335.552 39.158 335.554 39.1562L333.89 37.29M335.548 39.1615C335.545 39.1641 335.542 39.1666 335.539 39.1692L333.89 37.29M335.548 39.1615C333.506 40.9817 331.599 42.8076 329.826 44.6389M333.89 37.29C331.803 39.15 329.85 41.02 328.03 42.9M328.03 42.9L329.826 44.6386C329.826 44.6387 329.826 44.6388 329.826 44.6389M328.03 42.9C316.01 55.32 309.72 68.13 306.94 81.44C304.21 94.5 304.85 108.04 306.85 122.2M328.03 42.9L329.826 44.6389M329.826 44.6389C318.129 56.7253 312.069 69.1117 309.387 81.9511L309.387 81.9515C306.743 94.603 307.343 107.814 309.325 121.849M309.325 121.849C309.325 121.847 309.325 121.845 309.324 121.842L306.85 122.2M309.325 121.849C309.325 121.85 309.325 121.85 309.325 121.85L306.85 122.2M309.325 121.849C310.407 129.328 311.827 136.997 313.307 144.9L310.85 145.36C309.37 137.46 307.94 129.74 306.85 122.2M241.538 234.635C258.547 226.55 277.119 214.759 291.235 200.52L291.237 200.518C303.384 188.24 312.401 173.892 313.898 158.242L241.533 234.638C241.535 234.637 241.537 234.636 241.538 234.635ZM241.538 234.635C239.947 235.398 238.348 236.136 236.743 236.851M241.538 234.635L236.743 236.851M236.743 236.851C215.022 246.636 191.767 253.278 168.216 258.823C168.215 258.823 168.214 258.823 168.213 258.823L167.64 256.39C156.157 259.106 144.576 261.558 133.037 264.001L236.743 236.851ZM130.068 267.186L129.354 267.337C125.962 268.056 122.573 268.775 119.184 269.52L119.177 269.522M130.068 267.186L118.64 267.08L119.177 269.522M130.068 267.186C130.069 267.186 130.069 267.186 130.069 267.186L130.068 267.186ZM119.177 269.522L116.986 270.01M119.177 269.522L116.986 270.01M116.986 270.01C116.985 270.01 116.984 270.01 116.984 270.01M116.986 270.01L116.984 270.01" fill="#0214BB" stroke="#0214BB" stroke-width="5"/>
<path opacity="0.03" d="M992.44 14.82V592.03C991.85 592.51 991.24 593.03 990.64 593.46C978.065 603.215 964.864 612.135 951.12 620.16H236.69C200.781 604.351 166.029 586.036 132.69 565.35C127.97 562.41 123.28 559.41 118.62 556.35C117.89 555.86 117.15 555.35 116.42 554.88V14.88L992.44 14.82Z" fill="black"/>
<path d="M990.19 17.19V593.215C977.726 602.871 964.647 611.705 951.035 619.66H236.795C200.942 603.87 166.243 585.58 132.954 564.925C128.313 562.035 123.702 559.087 119.12 556.08V17.19H990.19Z" fill="#FEFEFE" stroke="#0214BB"/>
<g opacity="0.7">
<path opacity="0.7" d="M781.1 233.92C776.947 233.92 772.886 235.152 769.433 237.459C765.98 239.767 763.288 243.046 761.699 246.884C760.109 250.721 759.693 254.943 760.504 259.017C761.314 263.091 763.314 266.832 766.251 269.769C769.188 272.706 772.93 274.706 777.003 275.517C781.077 276.327 785.299 275.911 789.136 274.321C792.974 272.732 796.253 270.04 798.561 266.587C800.868 263.134 802.1 259.073 802.1 254.92C802.1 249.35 799.888 244.009 795.949 240.071C792.011 236.133 786.67 233.92 781.1 233.92V233.92ZM781.1 271.92C776.591 271.92 772.267 270.129 769.079 266.941C765.891 263.753 764.1 259.429 764.1 254.92C764.096 253.019 764.417 251.132 765.05 249.34C765.05 249.34 765.05 249.34 765.05 249.34C766.07 246.386 767.885 243.771 770.294 241.782C772.704 239.792 775.615 238.505 778.708 238.062C781.801 237.619 784.957 238.037 787.828 239.27C790.699 240.504 793.175 242.504 794.983 245.053C796.791 247.601 797.862 250.599 798.078 253.716C798.294 256.833 797.646 259.95 796.206 262.723C794.767 265.497 792.59 267.819 789.916 269.437C787.243 271.054 784.175 271.903 781.05 271.89L781.1 271.92Z" fill="#FF6584"/>
<path opacity="0.7" d="M787.54 264.04L790.18 261.39C790.289 261.281 790.376 261.152 790.436 261.009C790.495 260.867 790.525 260.714 790.525 260.56C790.525 260.406 790.495 260.253 790.436 260.111C790.376 259.968 790.289 259.839 790.18 259.73L785.41 254.95L790.18 250.18C790.289 250.071 790.376 249.942 790.436 249.799C790.495 249.657 790.525 249.504 790.525 249.35C790.525 249.196 790.495 249.043 790.436 248.901C790.376 248.758 790.289 248.629 790.18 248.52L787.54 245.87C787.43 245.76 787.3 245.673 787.157 245.614C787.014 245.554 786.86 245.524 786.705 245.524C786.55 245.524 786.396 245.554 786.253 245.614C786.11 245.673 785.98 245.76 785.87 245.87L781.1 250.64L776.33 245.87C776.221 245.761 776.092 245.674 775.95 245.614C775.807 245.555 775.654 245.525 775.5 245.525C775.346 245.525 775.193 245.555 775.05 245.614C774.908 245.674 774.779 245.761 774.67 245.87L772.02 248.57C771.911 248.679 771.824 248.808 771.764 248.951C771.705 249.093 771.675 249.246 771.675 249.4C771.675 249.554 771.705 249.707 771.764 249.85C771.824 249.992 771.911 250.121 772.02 250.23L776.79 255L772.02 259.78C771.911 259.889 771.824 260.018 771.764 260.161C771.705 260.303 771.675 260.456 771.675 260.61C771.675 260.764 771.705 260.917 771.764 261.06C771.824 261.202 771.911 261.331 772.02 261.44L774.67 264.09C774.779 264.199 774.908 264.286 775.05 264.346C775.193 264.405 775.346 264.435 775.5 264.435C775.654 264.435 775.807 264.405 775.95 264.346C776.092 264.286 776.221 264.199 776.33 264.09L781.1 259.31L785.87 264.09C786.1 264.3 786.403 264.413 786.715 264.403C787.027 264.394 787.323 264.264 787.54 264.04V264.04Z" fill="#FF6584"/>
</g>
<path opacity="0.1" d="M739.13 402.91C738.611 400.18 737.555 397.58 736.024 395.261C734.493 392.942 732.517 390.95 730.21 389.4V389.4C727.884 387.842 725.272 386.763 722.525 386.226C719.778 385.688 716.951 385.703 714.21 386.27L713.58 386.42C712.447 386.682 711.339 387.043 710.27 387.5C706.48 389.128 703.251 391.833 700.984 395.279C698.717 398.726 697.511 402.761 697.516 406.886C697.522 411.012 698.738 415.044 701.014 418.485C703.29 421.925 706.526 424.622 710.32 426.24L710.92 426.48C714.107 427.721 717.548 428.165 720.946 427.773C724.343 427.381 727.593 426.166 730.414 424.232C733.235 422.298 735.541 419.705 737.131 416.678C738.721 413.65 739.548 410.28 739.54 406.86C739.532 405.533 739.395 404.21 739.13 402.91V402.91ZM735.25 409.38C735.255 409.4 735.255 409.42 735.25 409.44V409.63C734.814 412.206 733.789 414.647 732.257 416.764C730.724 418.88 728.724 420.614 726.412 421.832C724.1 423.05 721.538 423.719 718.926 423.786C716.314 423.853 713.721 423.317 711.35 422.22C711.149 422.133 710.952 422.037 710.76 421.93C709.644 421.361 708.598 420.667 707.64 419.86C705.565 418.113 703.938 415.894 702.896 413.39C701.853 410.885 701.425 408.168 701.648 405.464C701.87 402.761 702.736 400.149 704.173 397.849C705.611 395.548 707.578 393.625 709.91 392.24C710.968 391.607 712.096 391.097 713.27 390.72L713.9 390.53C716.422 389.824 719.073 389.711 721.647 390.199C724.22 390.687 726.645 391.762 728.734 393.342C730.823 394.922 732.519 396.963 733.689 399.306C734.859 401.649 735.472 404.231 735.48 406.85C735.469 407.698 735.392 408.544 735.25 409.38V409.38Z" fill="#0214BB"/>
<path opacity="0.1" d="M724.92 415.94L727.57 413.29C727.679 413.181 727.766 413.052 727.826 412.91C727.885 412.767 727.915 412.614 727.915 412.46C727.915 412.306 727.885 412.153 727.826 412.01C727.766 411.868 727.679 411.739 727.57 411.63L722.8 406.86L727.57 402.09C727.68 401.98 727.767 401.85 727.826 401.707C727.886 401.564 727.916 401.41 727.916 401.255C727.916 401.1 727.886 400.946 727.826 400.803C727.767 400.66 727.68 400.53 727.57 400.42L724.92 397.78C724.811 397.671 724.682 397.584 724.539 397.524C724.397 397.465 724.244 397.435 724.09 397.435C723.936 397.435 723.783 397.465 723.641 397.524C723.498 397.584 723.369 397.671 723.26 397.78L718.49 402.57L713.69 397.78C713.581 397.671 713.452 397.584 713.31 397.524C713.167 397.465 713.014 397.435 712.86 397.435C712.706 397.435 712.553 397.465 712.411 397.524C712.268 397.584 712.139 397.671 712.03 397.78L709.38 400.42C709.27 400.53 709.183 400.66 709.124 400.803C709.064 400.946 709.034 401.1 709.034 401.255C709.034 401.41 709.064 401.564 709.124 401.707C709.183 401.85 709.27 401.98 709.38 402.09L714.16 406.86L709.38 411.63C709.271 411.739 709.184 411.868 709.124 412.01C709.065 412.153 709.035 412.306 709.035 412.46C709.035 412.614 709.065 412.767 709.124 412.91C709.184 413.052 709.271 413.181 709.38 413.29L712.03 415.94C712.139 416.049 712.268 416.136 712.411 416.196C712.553 416.255 712.706 416.285 712.86 416.285C713.014 416.285 713.167 416.255 713.31 416.196C713.452 416.136 713.581 416.049 713.69 415.94L718.47 411.17L723.24 415.94C723.349 416.052 723.48 416.142 723.624 416.203C723.768 416.264 723.923 416.296 724.08 416.296C724.237 416.296 724.392 416.264 724.536 416.203C724.68 416.142 724.811 416.052 724.92 415.94V415.94Z" fill="#0214BB"/>
<path opacity="0.7" d="M677.02 95.89L675.11 93.97C675.017 93.8732 674.905 93.7962 674.781 93.7437C674.657 93.6911 674.524 93.664 674.39 93.664C674.256 93.664 674.123 93.6911 673.999 93.7437C673.875 93.7962 673.763 93.8732 673.67 93.97L661.67 105.86L656.6 100.75C656.507 100.655 656.396 100.579 656.273 100.527C656.15 100.476 656.018 100.449 655.885 100.449C655.752 100.449 655.62 100.476 655.497 100.527C655.374 100.579 655.263 100.655 655.17 100.75L653.24 102.66C653.143 102.753 653.066 102.865 653.014 102.989C652.961 103.113 652.934 103.246 652.934 103.38C652.934 103.514 652.961 103.647 653.014 103.771C653.066 103.895 653.143 104.007 653.24 104.1L660.94 111.86C661.033 111.957 661.145 112.034 661.269 112.086C661.393 112.139 661.526 112.166 661.66 112.166C661.794 112.166 661.927 112.139 662.051 112.086C662.175 112.034 662.287 111.957 662.38 111.86L677.01 97.34C677.109 97.2473 677.188 97.1354 677.242 97.0111C677.297 96.8868 677.325 96.7528 677.326 96.6171C677.327 96.4815 677.301 96.3471 677.248 96.2221C677.195 96.0971 677.118 95.9841 677.02 95.89ZM677.02 95.89L675.11 93.97C675.017 93.8732 674.905 93.7962 674.781 93.7437C674.657 93.6911 674.524 93.664 674.39 93.664C674.256 93.664 674.123 93.6911 673.999 93.7437C673.875 93.7962 673.763 93.8732 673.67 93.97L661.67 105.86L656.6 100.75C656.507 100.655 656.396 100.579 656.273 100.527C656.15 100.476 656.018 100.449 655.885 100.449C655.752 100.449 655.62 100.476 655.497 100.527C655.374 100.579 655.263 100.655 655.17 100.75L653.24 102.66C653.143 102.753 653.066 102.865 653.014 102.989C652.961 103.113 652.934 103.246 652.934 103.38C652.934 103.514 652.961 103.647 653.014 103.771C653.066 103.895 653.143 104.007 653.24 104.1L660.94 111.86C661.033 111.957 661.145 112.034 661.269 112.086C661.393 112.139 661.526 112.166 661.66 112.166C661.794 112.166 661.927 112.139 662.051 112.086C662.175 112.034 662.287 111.957 662.38 111.86L677.01 97.34C677.109 97.2473 677.188 97.1354 677.242 97.0111C677.297 96.8868 677.325 96.7528 677.326 96.6171C677.327 96.4815 677.301 96.3471 677.248 96.2221C677.195 96.0971 677.118 95.9841 677.02 95.89ZM677.02 95.89L675.11 93.97C675.017 93.8732 674.905 93.7962 674.781 93.7437C674.657 93.6911 674.524 93.664 674.39 93.664C674.256 93.664 674.123 93.6911 673.999 93.7437C673.875 93.7962 673.763 93.8732 673.67 93.97L661.67 105.86L656.6 100.75C656.507 100.655 656.396 100.579 656.273 100.527C656.15 100.476 656.018 100.449 655.885 100.449C655.752 100.449 655.62 100.476 655.497 100.527C655.374 100.579 655.263 100.655 655.17 100.75L653.24 102.66C653.143 102.753 653.066 102.865 653.014 102.989C652.961 103.113 652.934 103.246 652.934 103.38C652.934 103.514 652.961 103.647 653.014 103.771C653.066 103.895 653.143 104.007 653.24 104.1L660.94 111.86C661.033 111.957 661.145 112.034 661.269 112.086C661.393 112.139 661.526 112.166 661.66 112.166C661.794 112.166 661.927 112.139 662.051 112.086C662.175 112.034 662.287 111.957 662.38 111.86L677.01 97.34C677.109 97.2473 677.188 97.1354 677.242 97.0111C677.297 96.8868 677.325 96.7528 677.326 96.6171C677.327 96.4815 677.301 96.3471 677.248 96.2221C677.195 96.0971 677.118 95.9841 677.02 95.89ZM677.02 95.89L675.11 93.97C675.017 93.8732 674.905 93.7962 674.781 93.7437C674.657 93.6911 674.524 93.664 674.39 93.664C674.256 93.664 674.123 93.6911 673.999 93.7437C673.875 93.7962 673.763 93.8732 673.67 93.97L661.67 105.86L656.6 100.75C656.507 100.655 656.396 100.579 656.273 100.527C656.15 100.476 656.018 100.449 655.885 100.449C655.752 100.449 655.62 100.476 655.497 100.527C655.374 100.579 655.263 100.655 655.17 100.75L653.24 102.66C653.143 102.753 653.066 102.865 653.014 102.989C652.961 103.113 652.934 103.246 652.934 103.38C652.934 103.514 652.961 103.647 653.014 103.771C653.066 103.895 653.143 104.007 653.24 104.1L660.94 111.86C661.033 111.957 661.145 112.034 661.269 112.086C661.393 112.139 661.526 112.166 661.66 112.166C661.794 112.166 661.927 112.139 662.051 112.086C662.175 112.034 662.287 111.957 662.38 111.86L677.01 97.34C677.109 97.2473 677.188 97.1354 677.242 97.0111C677.297 96.8868 677.325 96.7528 677.326 96.6171C677.327 96.4815 677.301 96.3471 677.248 96.2221C677.195 96.0971 677.118 95.9841 677.02 95.89ZM665.13 80.78C660.977 80.78 656.916 82.0116 653.463 84.3191C650.01 86.6266 647.318 89.9064 645.729 93.7436C644.139 97.5809 643.723 101.803 644.534 105.877C645.344 109.951 647.344 113.692 650.281 116.629C653.218 119.566 656.959 121.566 661.033 122.376C665.107 123.187 669.329 122.771 673.166 121.181C677.004 119.592 680.283 116.9 682.591 113.447C684.898 109.994 686.13 105.933 686.13 101.78C686.13 96.2105 683.918 90.869 679.979 86.9308C676.041 82.9925 670.7 80.78 665.13 80.78V80.78ZM665.13 118.78C661.768 118.78 658.481 117.783 655.685 115.915C652.89 114.047 650.711 111.392 649.424 108.286C648.137 105.179 647.801 101.761 648.457 98.4635C649.113 95.1658 650.732 92.1367 653.109 89.7592C655.487 87.3817 658.516 85.7626 661.813 85.1067C665.111 84.4507 668.529 84.7874 671.636 86.0741C674.742 87.3607 677.397 89.5397 679.265 92.3353C681.133 95.1309 682.13 98.4177 682.13 101.78C682.134 104.013 681.697 106.224 680.844 108.287C679.99 110.35 678.738 112.225 677.158 113.803C675.579 115.38 673.703 116.631 671.639 117.481C669.575 118.332 667.363 118.767 665.13 118.76V118.78ZM677.02 95.91L675.11 93.99C675.017 93.8932 674.905 93.8162 674.781 93.7636C674.657 93.7111 674.524 93.684 674.39 93.684C674.256 93.684 674.123 93.7111 673.999 93.7636C673.875 93.8162 673.763 93.8932 673.67 93.99L661.67 105.88L656.6 100.77C656.507 100.675 656.396 100.599 656.273 100.547C656.15 100.496 656.018 100.469 655.885 100.469C655.752 100.469 655.62 100.496 655.497 100.547C655.374 100.599 655.263 100.675 655.17 100.77L653.24 102.68C653.143 102.773 653.066 102.885 653.014 103.009C652.961 103.133 652.934 103.266 652.934 103.4C652.934 103.534 652.961 103.667 653.014 103.791C653.066 103.915 653.143 104.027 653.24 104.12L660.94 111.88C661.033 111.977 661.145 112.054 661.269 112.106C661.393 112.159 661.526 112.186 661.66 112.186C661.794 112.186 661.927 112.159 662.051 112.106C662.175 112.054 662.287 111.977 662.38 111.88L677.01 97.36C677.112 97.267 677.194 97.1539 677.25 97.0278C677.306 96.9017 677.336 96.7653 677.337 96.6272C677.338 96.4891 677.31 96.3523 677.256 96.2254C677.201 96.0985 677.121 95.9843 677.02 95.89V95.91ZM677.02 95.91L675.11 93.99C675.017 93.8932 674.905 93.8162 674.781 93.7636C674.657 93.7111 674.524 93.684 674.39 93.684C674.256 93.684 674.123 93.7111 673.999 93.7636C673.875 93.8162 673.763 93.8932 673.67 93.99L661.67 105.88L656.6 100.77C656.507 100.675 656.396 100.599 656.273 100.547C656.15 100.496 656.018 100.469 655.885 100.469C655.752 100.469 655.62 100.496 655.497 100.547C655.374 100.599 655.263 100.675 655.17 100.77L653.24 102.68C653.143 102.773 653.066 102.885 653.014 103.009C652.961 103.133 652.934 103.266 652.934 103.4C652.934 103.534 652.961 103.667 653.014 103.791C653.066 103.915 653.143 104.027 653.24 104.12L660.94 111.88C661.033 111.977 661.145 112.054 661.269 112.106C661.393 112.159 661.526 112.186 661.66 112.186C661.794 112.186 661.927 112.159 662.051 112.106C662.175 112.054 662.287 111.977 662.38 111.88L677.01 97.36C677.112 97.267 677.194 97.1539 677.25 97.0278C677.306 96.9017 677.336 96.7653 677.337 96.6272C677.338 96.4891 677.31 96.3523 677.256 96.2254C677.201 96.0985 677.121 95.9843 677.02 95.89V95.91ZM677.02 95.91L675.11 93.99C675.017 93.8932 674.905 93.8162 674.781 93.7636C674.657 93.7111 674.524 93.684 674.39 93.684C674.256 93.684 674.123 93.7111 673.999 93.7636C673.875 93.8162 673.763 93.8932 673.67 93.99L661.67 105.88L656.6 100.77C656.507 100.675 656.396 100.599 656.273 100.547C656.15 100.496 656.018 100.469 655.885 100.469C655.752 100.469 655.62 100.496 655.497 100.547C655.374 100.599 655.263 100.675 655.17 100.77L653.24 102.68C653.143 102.773 653.066 102.885 653.014 103.009C652.961 103.133 652.934 103.266 652.934 103.4C652.934 103.534 652.961 103.667 653.014 103.791C653.066 103.915 653.143 104.027 653.24 104.12L660.94 111.88C661.033 111.977 661.145 112.054 661.269 112.106C661.393 112.159 661.526 112.186 661.66 112.186C661.794 112.186 661.927 112.159 662.051 112.106C662.175 112.054 662.287 111.977 662.38 111.88L677.01 97.36C677.112 97.267 677.194 97.1539 677.25 97.0278C677.306 96.9017 677.336 96.7653 677.337 96.6272C677.338 96.4891 677.31 96.3523 677.256 96.2254C677.201 96.0985 677.121 95.9843 677.02 95.89V95.91ZM677.02 95.91L675.11 93.99C675.017 93.8932 674.905 93.8162 674.781 93.7636C674.657 93.7111 674.524 93.684 674.39 93.684C674.256 93.684 674.123 93.7111 673.999 93.7636C673.875 93.8162 673.763 93.8932 673.67 93.99L661.67 105.88L656.6 100.77C656.507 100.675 656.396 100.599 656.273 100.547C656.15 100.496 656.018 100.469 655.885 100.469C655.752 100.469 655.62 100.496 655.497 100.547C655.374 100.599 655.263 100.675 655.17 100.77L653.24 102.68C653.143 102.773 653.066 102.885 653.014 103.009C652.961 103.133 652.934 103.266 652.934 103.4C652.934 103.534 652.961 103.667 653.014 103.791C653.066 103.915 653.143 104.027 653.24 104.12L660.94 111.88C661.033 111.977 661.145 112.054 661.269 112.106C661.393 112.159 661.526 112.186 661.66 112.186C661.794 112.186 661.927 112.159 662.051 112.106C662.175 112.054 662.287 111.977 662.38 111.88L677.01 97.36C677.112 97.267 677.194 97.1539 677.25 97.0278C677.306 96.9017 677.336 96.7653 677.337 96.6272C677.338 96.4891 677.31 96.3523 677.256 96.2254C677.201 96.0985 677.121 95.9843 677.02 95.89V95.91ZM677.02 95.91L675.11 93.99C675.017 93.8932 674.905 93.8162 674.781 93.7636C674.657 93.7111 674.524 93.684 674.39 93.684C674.256 93.684 674.123 93.7111 673.999 93.7636C673.875 93.8162 673.763 93.8932 673.67 93.99L661.67 105.88L656.6 100.77C656.507 100.675 656.396 100.599 656.273 100.547C656.15 100.496 656.018 100.469 655.885 100.469C655.752 100.469 655.62 100.496 655.497 100.547C655.374 100.599 655.263 100.675 655.17 100.77L653.24 102.68C653.143 102.773 653.066 102.885 653.014 103.009C652.961 103.133 652.934 103.266 652.934 103.4C652.934 103.534 652.961 103.667 653.014 103.791C653.066 103.915 653.143 104.027 653.24 104.12L660.94 111.88C661.033 111.977 661.145 112.054 661.269 112.106C661.393 112.159 661.526 112.186 661.66 112.186C661.794 112.186 661.927 112.159 662.051 112.106C662.175 112.054 662.287 111.977 662.38 111.88L677.01 97.36C677.112 97.267 677.194 97.1539 677.25 97.0278C677.306 96.9017 677.336 96.7653 677.337 96.6272C677.338 96.4891 677.31 96.3523 677.256 96.2254C677.201 96.0985 677.121 95.9843 677.02 95.89V95.91Z" fill="#3ACC6C"/>
<path opacity="0.1" d="M714.23 249.04L712.32 247.11C712.227 247.013 712.115 246.936 711.991 246.884C711.867 246.831 711.734 246.804 711.6 246.804C711.466 246.804 711.333 246.831 711.209 246.884C711.085 246.936 710.973 247.013 710.88 247.11L698.88 259L693.81 253.89C693.717 253.793 693.605 253.716 693.481 253.664C693.358 253.611 693.224 253.584 693.09 253.584C692.956 253.584 692.823 253.611 692.699 253.664C692.575 253.716 692.463 253.793 692.37 253.89L690.44 255.8C690.343 255.893 690.266 256.005 690.214 256.129C690.161 256.253 690.134 256.386 690.134 256.52C690.134 256.654 690.161 256.787 690.214 256.911C690.266 257.035 690.343 257.147 690.44 257.24L698.13 265C698.223 265.097 698.335 265.174 698.459 265.226C698.583 265.279 698.716 265.306 698.85 265.306C698.984 265.306 699.117 265.279 699.241 265.226C699.365 265.174 699.477 265.097 699.57 265L714.21 250.48C714.308 250.388 714.387 250.277 714.441 250.154C714.495 250.031 714.524 249.899 714.526 249.764C714.528 249.63 714.503 249.496 714.452 249.372C714.401 249.248 714.325 249.135 714.23 249.04V249.04ZM714.23 249.04L712.32 247.11C712.227 247.013 712.115 246.936 711.991 246.884C711.867 246.831 711.734 246.804 711.6 246.804C711.466 246.804 711.333 246.831 711.209 246.884C711.085 246.936 710.973 247.013 710.88 247.11L698.88 259L693.81 253.89C693.717 253.793 693.605 253.716 693.481 253.664C693.358 253.611 693.224 253.584 693.09 253.584C692.956 253.584 692.823 253.611 692.699 253.664C692.575 253.716 692.463 253.793 692.37 253.89L690.44 255.8C690.343 255.893 690.266 256.005 690.214 256.129C690.161 256.253 690.134 256.386 690.134 256.52C690.134 256.654 690.161 256.787 690.214 256.911C690.266 257.035 690.343 257.147 690.44 257.24L698.13 265C698.223 265.097 698.335 265.174 698.459 265.226C698.583 265.279 698.716 265.306 698.85 265.306C698.984 265.306 699.117 265.279 699.241 265.226C699.365 265.174 699.477 265.097 699.57 265L714.21 250.48C714.308 250.388 714.387 250.277 714.441 250.154C714.495 250.031 714.524 249.899 714.526 249.764C714.528 249.63 714.503 249.496 714.452 249.372C714.401 249.248 714.325 249.135 714.23 249.04V249.04ZM714.23 249.04L712.32 247.11C712.227 247.013 712.115 246.936 711.991 246.884C711.867 246.831 711.734 246.804 711.6 246.804C711.466 246.804 711.333 246.831 711.209 246.884C711.085 246.936 710.973 247.013 710.88 247.11L698.88 259L693.81 253.89C693.717 253.793 693.605 253.716 693.481 253.664C693.358 253.611 693.224 253.584 693.09 253.584C692.956 253.584 692.823 253.611 692.699 253.664C692.575 253.716 692.463 253.793 692.37 253.89L690.44 255.8C690.343 255.893 690.266 256.005 690.214 256.129C690.161 256.253 690.134 256.386 690.134 256.52C690.134 256.654 690.161 256.787 690.214 256.911C690.266 257.035 690.343 257.147 690.44 257.24L698.13 265C698.223 265.097 698.335 265.174 698.459 265.226C698.583 265.279 698.716 265.306 698.85 265.306C698.984 265.306 699.117 265.279 699.241 265.226C699.365 265.174 699.477 265.097 699.57 265L714.21 250.48C714.308 250.388 714.387 250.277 714.441 250.154C714.495 250.031 714.524 249.899 714.526 249.764C714.528 249.63 714.503 249.496 714.452 249.372C714.401 249.248 714.325 249.135 714.23 249.04V249.04ZM714.23 249.04L712.32 247.11C712.227 247.013 712.115 246.936 711.991 246.884C711.867 246.831 711.734 246.804 711.6 246.804C711.466 246.804 711.333 246.831 711.209 246.884C711.085 246.936 710.973 247.013 710.88 247.11L698.88 259L693.81 253.89C693.717 253.793 693.605 253.716 693.481 253.664C693.358 253.611 693.224 253.584 693.09 253.584C692.956 253.584 692.823 253.611 692.699 253.664C692.575 253.716 692.463 253.793 692.37 253.89L690.44 255.8C690.343 255.893 690.266 256.005 690.214 256.129C690.161 256.253 690.134 256.386 690.134 256.52C690.134 256.654 690.161 256.787 690.214 256.911C690.266 257.035 690.343 257.147 690.44 257.24L698.13 265C698.223 265.097 698.335 265.174 698.459 265.226C698.583 265.279 698.716 265.306 698.85 265.306C698.984 265.306 699.117 265.279 699.241 265.226C699.365 265.174 699.477 265.097 699.57 265L714.21 250.48C714.308 250.388 714.387 250.277 714.441 250.154C714.495 250.031 714.524 249.899 714.526 249.764C714.528 249.63 714.503 249.496 714.452 249.372C714.401 249.248 714.325 249.135 714.23 249.04V249.04ZM702.34 233.92C698.187 233.92 694.126 235.152 690.673 237.459C687.22 239.767 684.528 243.046 682.939 246.884C681.349 250.721 680.933 254.943 681.744 259.017C682.554 263.091 684.554 266.832 687.491 269.769C690.428 272.706 694.17 274.706 698.243 275.517C702.317 276.327 706.539 275.911 710.376 274.321C714.214 272.732 717.493 270.04 719.801 266.587C722.108 263.134 723.34 259.073 723.34 254.92C723.34 249.35 721.128 244.009 717.189 240.071C713.251 236.133 707.91 233.92 702.34 233.92ZM702.34 271.92C698.978 271.92 695.691 270.923 692.895 269.055C690.1 267.187 687.921 264.532 686.634 261.426C685.347 258.319 685.011 254.901 685.667 251.603C686.323 248.306 687.942 245.277 690.319 242.899C692.697 240.522 695.726 238.903 699.023 238.247C702.321 237.591 705.739 237.927 708.846 239.214C711.952 240.501 714.607 242.68 716.475 245.475C718.343 248.271 719.34 251.558 719.34 254.92C719.345 257.153 718.909 259.366 718.057 261.43C717.204 263.495 715.952 265.37 714.372 266.949C712.792 268.528 710.916 269.779 708.851 270.63C706.786 271.482 704.574 271.917 702.34 271.91V271.92ZM714.23 249.05L712.32 247.12C712.227 247.023 712.115 246.946 711.991 246.894C711.867 246.841 711.734 246.814 711.6 246.814C711.466 246.814 711.333 246.841 711.209 246.894C711.085 246.946 710.973 247.023 710.88 247.12L698.88 259.01L693.81 253.9C693.717 253.803 693.605 253.726 693.481 253.674C693.358 253.621 693.224 253.594 693.09 253.594C692.956 253.594 692.823 253.621 692.699 253.674C692.575 253.726 692.463 253.803 692.37 253.9L690.44 255.81C690.343 255.903 690.266 256.015 690.214 256.139C690.161 256.263 690.134 256.396 690.134 256.53C690.134 256.664 690.161 256.797 690.214 256.921C690.266 257.045 690.343 257.157 690.44 257.25L698.13 265.01C698.223 265.107 698.335 265.184 698.459 265.236C698.583 265.289 698.716 265.316 698.85 265.316C698.984 265.316 699.117 265.289 699.241 265.236C699.365 265.184 699.477 265.107 699.57 265.01L714.21 250.49C714.31 250.398 714.39 250.287 714.445 250.163C714.5 250.039 714.529 249.905 714.531 249.769C714.533 249.634 714.507 249.499 714.456 249.374C714.404 249.248 714.327 249.135 714.23 249.04V249.05ZM714.23 249.05L712.32 247.12C712.227 247.023 712.115 246.946 711.991 246.894C711.867 246.841 711.734 246.814 711.6 246.814C711.466 246.814 711.333 246.841 711.209 246.894C711.085 246.946 710.973 247.023 710.88 247.12L698.88 259.01L693.81 253.9C693.717 253.803 693.605 253.726 693.481 253.674C693.358 253.621 693.224 253.594 693.09 253.594C692.956 253.594 692.823 253.621 692.699 253.674C692.575 253.726 692.463 253.803 692.37 253.9L690.44 255.81C690.343 255.903 690.266 256.015 690.214 256.139C690.161 256.263 690.134 256.396 690.134 256.53C690.134 256.664 690.161 256.797 690.214 256.921C690.266 257.045 690.343 257.157 690.44 257.25L698.13 265.01C698.223 265.107 698.335 265.184 698.459 265.236C698.583 265.289 698.716 265.316 698.85 265.316C698.984 265.316 699.117 265.289 699.241 265.236C699.365 265.184 699.477 265.107 699.57 265.01L714.21 250.49C714.31 250.398 714.39 250.287 714.445 250.163C714.5 250.039 714.529 249.905 714.531 249.769C714.533 249.634 714.507 249.499 714.456 249.374C714.404 249.248 714.327 249.135 714.23 249.04V249.05ZM714.23 249.05L712.32 247.12C712.227 247.023 712.115 246.946 711.991 246.894C711.867 246.841 711.734 246.814 711.6 246.814C711.466 246.814 711.333 246.841 711.209 246.894C711.085 246.946 710.973 247.023 710.88 247.12L698.88 259.01L693.81 253.9C693.717 253.803 693.605 253.726 693.481 253.674C693.358 253.621 693.224 253.594 693.09 253.594C692.956 253.594 692.823 253.621 692.699 253.674C692.575 253.726 692.463 253.803 692.37 253.9L690.44 255.81C690.343 255.903 690.266 256.015 690.214 256.139C690.161 256.263 690.134 256.396 690.134 256.53C690.134 256.664 690.161 256.797 690.214 256.921C690.266 257.045 690.343 257.157 690.44 257.25L698.13 265.01C698.223 265.107 698.335 265.184 698.459 265.236C698.583 265.289 698.716 265.316 698.85 265.316C698.984 265.316 699.117 265.289 699.241 265.236C699.365 265.184 699.477 265.107 699.57 265.01L714.21 250.49C714.31 250.398 714.39 250.287 714.445 250.163C714.5 250.039 714.529 249.905 714.531 249.769C714.533 249.634 714.507 249.499 714.456 249.374C714.404 249.248 714.327 249.135 714.23 249.04V249.05ZM714.23 249.05L712.32 247.12C712.227 247.023 712.115 246.946 711.991 246.894C711.867 246.841 711.734 246.814 711.6 246.814C711.466 246.814 711.333 246.841 711.209 246.894C711.085 246.946 710.973 247.023 710.88 247.12L698.88 259.01L693.81 253.9C693.717 253.803 693.605 253.726 693.481 253.674C693.358 253.621 693.224 253.594 693.09 253.594C692.956 253.594 692.823 253.621 692.699 253.674C692.575 253.726 692.463 253.803 692.37 253.9L690.44 255.81C690.343 255.903 690.266 256.015 690.214 256.139C690.161 256.263 690.134 256.396 690.134 256.53C690.134 256.664 690.161 256.797 690.214 256.921C690.266 257.045 690.343 257.157 690.44 257.25L698.13 265.01C698.223 265.107 698.335 265.184 698.459 265.236C698.583 265.289 698.716 265.316 698.85 265.316C698.984 265.316 699.117 265.289 699.241 265.236C699.365 265.184 699.477 265.107 699.57 265.01L714.21 250.49C714.31 250.398 714.39 250.287 714.445 250.163C714.5 250.039 714.529 249.905 714.531 249.769C714.533 249.634 714.507 249.499 714.456 249.374C714.404 249.248 714.327 249.135 714.23 249.04V249.05ZM714.23 249.05L712.32 247.12C712.227 247.023 712.115 246.946 711.991 246.894C711.867 246.841 711.734 246.814 711.6 246.814C711.466 246.814 711.333 246.841 711.209 246.894C711.085 246.946 710.973 247.023 710.88 247.12L698.88 259.01L693.81 253.9C693.717 253.803 693.605 253.726 693.481 253.674C693.358 253.621 693.224 253.594 693.09 253.594C692.956 253.594 692.823 253.621 692.699 253.674C692.575 253.726 692.463 253.803 692.37 253.9L690.44 255.81C690.343 255.903 690.266 256.015 690.214 256.139C690.161 256.263 690.134 256.396 690.134 256.53C690.134 256.664 690.161 256.797 690.214 256.921C690.266 257.045 690.343 257.157 690.44 257.25L698.13 265.01C698.223 265.107 698.335 265.184 698.459 265.236C698.583 265.289 698.716 265.316 698.85 265.316C698.984 265.316 699.117 265.289 699.241 265.236C699.365 265.184 699.477 265.107 699.57 265.01L714.21 250.49C714.31 250.398 714.39 250.287 714.445 250.163C714.5 250.039 714.529 249.905 714.531 249.769C714.533 249.634 714.507 249.499 714.456 249.374C714.404 249.248 714.327 249.135 714.23 249.04V249.05Z" fill="#0214BB"/>
<path opacity="0.7" d="M651.36 402.18L649.45 400.25C649.357 400.153 649.245 400.076 649.121 400.024C648.997 399.971 648.864 399.944 648.73 399.944C648.596 399.944 648.463 399.971 648.339 400.024C648.215 400.076 648.103 400.153 648.01 400.25L636.01 412.14L630.94 407.03C630.847 406.933 630.735 406.856 630.611 406.804C630.487 406.751 630.354 406.724 630.22 406.724C630.086 406.724 629.953 406.751 629.829 406.804C629.705 406.856 629.593 406.933 629.5 407.03L627.57 408.94C627.473 409.033 627.396 409.145 627.344 409.269C627.291 409.393 627.264 409.526 627.264 409.66C627.264 409.794 627.291 409.927 627.344 410.051C627.396 410.175 627.473 410.287 627.57 410.38L635.26 418.14C635.353 418.237 635.465 418.314 635.589 418.366C635.713 418.419 635.846 418.446 635.98 418.446C636.114 418.446 636.247 418.419 636.371 418.366C636.495 418.314 636.607 418.237 636.7 418.14L651.34 403.62C651.438 403.528 651.517 403.417 651.571 403.294C651.625 403.171 651.654 403.039 651.656 402.904C651.658 402.77 651.633 402.636 651.582 402.512C651.531 402.388 651.456 402.275 651.36 402.18V402.18ZM651.36 402.18L649.45 400.25C649.357 400.153 649.245 400.076 649.121 400.024C648.997 399.971 648.864 399.944 648.73 399.944C648.596 399.944 648.463 399.971 648.339 400.024C648.215 400.076 648.103 400.153 648.01 400.25L636.01 412.14L630.94 407.03C630.847 406.933 630.735 406.856 630.611 406.804C630.487 406.751 630.354 406.724 630.22 406.724C630.086 406.724 629.953 406.751 629.829 406.804C629.705 406.856 629.593 406.933 629.5 407.03L627.57 408.94C627.473 409.033 627.396 409.145 627.344 409.269C627.291 409.393 627.264 409.526 627.264 409.66C627.264 409.794 627.291 409.927 627.344 410.051C627.396 410.175 627.473 410.287 627.57 410.38L635.26 418.14C635.353 418.237 635.465 418.314 635.589 418.366C635.713 418.419 635.846 418.446 635.98 418.446C636.114 418.446 636.247 418.419 636.371 418.366C636.495 418.314 636.607 418.237 636.7 418.14L651.34 403.62C651.438 403.528 651.517 403.417 651.571 403.294C651.625 403.171 651.654 403.039 651.656 402.904C651.658 402.77 651.633 402.636 651.582 402.512C651.531 402.388 651.456 402.275 651.36 402.18V402.18ZM651.36 402.18L649.45 400.25C649.357 400.153 649.245 400.076 649.121 400.024C648.997 399.971 648.864 399.944 648.73 399.944C648.596 399.944 648.463 399.971 648.339 400.024C648.215 400.076 648.103 400.153 648.01 400.25L636.01 412.14L630.94 407.03C630.847 406.933 630.735 406.856 630.611 406.804C630.487 406.751 630.354 406.724 630.22 406.724C630.086 406.724 629.953 406.751 629.829 406.804C629.705 406.856 629.593 406.933 629.5 407.03L627.57 408.94C627.473 409.033 627.396 409.145 627.344 409.269C627.291 409.393 627.264 409.526 627.264 409.66C627.264 409.794 627.291 409.927 627.344 410.051C627.396 410.175 627.473 410.287 627.57 410.38L635.26 418.14C635.353 418.237 635.465 418.314 635.589 418.366C635.713 418.419 635.846 418.446 635.98 418.446C636.114 418.446 636.247 418.419 636.371 418.366C636.495 418.314 636.607 418.237 636.7 418.14L651.34 403.62C651.438 403.528 651.517 403.417 651.571 403.294C651.625 403.171 651.654 403.039 651.656 402.904C651.658 402.77 651.633 402.636 651.582 402.512C651.531 402.388 651.456 402.275 651.36 402.18V402.18ZM651.36 402.18L649.45 400.25C649.357 400.153 649.245 400.076 649.121 400.024C648.997 399.971 648.864 399.944 648.73 399.944C648.596 399.944 648.463 399.971 648.339 400.024C648.215 400.076 648.103 400.153 648.01 400.25L636.01 412.14L630.94 407.03C630.847 406.933 630.735 406.856 630.611 406.804C630.487 406.751 630.354 406.724 630.22 406.724C630.086 406.724 629.953 406.751 629.829 406.804C629.705 406.856 629.593 406.933 629.5 407.03L627.57 408.94C627.473 409.033 627.396 409.145 627.344 409.269C627.291 409.393 627.264 409.526 627.264 409.66C627.264 409.794 627.291 409.927 627.344 410.051C627.396 410.175 627.473 410.287 627.57 410.38L635.26 418.14C635.353 418.237 635.465 418.314 635.589 418.366C635.713 418.419 635.846 418.446 635.98 418.446C636.114 418.446 636.247 418.419 636.371 418.366C636.495 418.314 636.607 418.237 636.7 418.14L651.34 403.62C651.438 403.528 651.517 403.417 651.571 403.294C651.625 403.171 651.654 403.039 651.656 402.904C651.658 402.77 651.633 402.636 651.582 402.512C651.531 402.388 651.456 402.275 651.36 402.18V402.18ZM639.47 387.06C635.317 387.06 631.256 388.292 627.803 390.599C624.35 392.907 621.658 396.186 620.069 400.024C618.479 403.861 618.063 408.083 618.874 412.157C619.684 416.23 621.684 419.972 624.621 422.909C627.558 425.846 631.3 427.846 635.373 428.656C639.447 429.467 643.669 429.051 647.506 427.461C651.344 425.872 654.623 423.18 656.931 419.727C659.238 416.274 660.47 412.213 660.47 408.06C660.47 402.49 658.258 397.149 654.319 393.211C650.381 389.272 645.04 387.06 639.47 387.06ZM639.47 425.06C636.108 425.06 632.821 424.063 630.025 422.195C627.23 420.327 625.051 417.672 623.764 414.566C622.477 411.459 622.141 408.041 622.797 404.743C623.453 401.446 625.072 398.417 627.449 396.039C629.827 393.662 632.856 392.043 636.153 391.387C639.451 390.731 642.869 391.067 645.976 392.354C649.082 393.641 651.737 395.82 653.605 398.615C655.473 401.411 656.47 404.698 656.47 408.06C656.477 410.294 656.041 412.507 655.189 414.572C654.337 416.637 653.085 418.513 651.505 420.092C649.925 421.671 648.048 422.922 645.983 423.773C643.917 424.624 641.704 425.058 639.47 425.05V425.06ZM651.36 402.19L649.45 400.26C649.357 400.163 649.245 400.086 649.121 400.034C648.997 399.981 648.864 399.954 648.73 399.954C648.596 399.954 648.463 399.981 648.339 400.034C648.215 400.086 648.103 400.163 648.01 400.26L636.01 412.15L630.94 407.04C630.847 406.943 630.735 406.866 630.611 406.814C630.487 406.761 630.354 406.734 630.22 406.734C630.086 406.734 629.953 406.761 629.829 406.814C629.705 406.866 629.593 406.943 629.5 407.04L627.57 408.95C627.473 409.043 627.396 409.155 627.344 409.279C627.291 409.403 627.264 409.536 627.264 409.67C627.264 409.804 627.291 409.937 627.344 410.061C627.396 410.185 627.473 410.297 627.57 410.39L635.26 418.15C635.353 418.247 635.465 418.324 635.589 418.376C635.713 418.429 635.846 418.456 635.98 418.456C636.114 418.456 636.247 418.429 636.371 418.376C636.495 418.324 636.607 418.247 636.7 418.15L651.34 403.63C651.44 403.538 651.52 403.427 651.575 403.303C651.63 403.179 651.659 403.045 651.661 402.909C651.663 402.774 651.637 402.639 651.586 402.514C651.534 402.388 651.457 402.275 651.36 402.18V402.19ZM651.36 402.19L649.45 400.26C649.357 400.163 649.245 400.086 649.121 400.034C648.997 399.981 648.864 399.954 648.73 399.954C648.596 399.954 648.463 399.981 648.339 400.034C648.215 400.086 648.103 400.163 648.01 400.26L636.01 412.15L630.94 407.04C630.847 406.943 630.735 406.866 630.611 406.814C630.487 406.761 630.354 406.734 630.22 406.734C630.086 406.734 629.953 406.761 629.829 406.814C629.705 406.866 629.593 406.943 629.5 407.04L627.57 408.95C627.473 409.043 627.396 409.155 627.344 409.279C627.291 409.403 627.264 409.536 627.264 409.67C627.264 409.804 627.291 409.937 627.344 410.061C627.396 410.185 627.473 410.297 627.57 410.39L635.26 418.15C635.353 418.247 635.465 418.324 635.589 418.376C635.713 418.429 635.846 418.456 635.98 418.456C636.114 418.456 636.247 418.429 636.371 418.376C636.495 418.324 636.607 418.247 636.7 418.15L651.34 403.63C651.44 403.538 651.52 403.427 651.575 403.303C651.63 403.179 651.659 403.045 651.661 402.909C651.663 402.774 651.637 402.639 651.586 402.514C651.534 402.388 651.457 402.275 651.36 402.18V402.19ZM651.36 402.19L649.45 400.26C649.357 400.163 649.245 400.086 649.121 400.034C648.997 399.981 648.864 399.954 648.73 399.954C648.596 399.954 648.463 399.981 648.339 400.034C648.215 400.086 648.103 400.163 648.01 400.26L636.01 412.15L630.94 407.04C630.847 406.943 630.735 406.866 630.611 406.814C630.487 406.761 630.354 406.734 630.22 406.734C630.086 406.734 629.953 406.761 629.829 406.814C629.705 406.866 629.593 406.943 629.5 407.04L627.57 408.95C627.473 409.043 627.396 409.155 627.344 409.279C627.291 409.403 627.264 409.536 627.264 409.67C627.264 409.804 627.291 409.937 627.344 410.061C627.396 410.185 627.473 410.297 627.57 410.39L635.26 418.15C635.353 418.247 635.465 418.324 635.589 418.376C635.713 418.429 635.846 418.456 635.98 418.456C636.114 418.456 636.247 418.429 636.371 418.376C636.495 418.324 636.607 418.247 636.7 418.15L651.34 403.63C651.44 403.538 651.52 403.427 651.575 403.303C651.63 403.179 651.659 403.045 651.661 402.909C651.663 402.774 651.637 402.639 651.586 402.514C651.534 402.388 651.457 402.275 651.36 402.18V402.19ZM651.36 402.19L649.45 400.26C649.357 400.163 649.245 400.086 649.121 400.034C648.997 399.981 648.864 399.954 648.73 399.954C648.596 399.954 648.463 399.981 648.339 400.034C648.215 400.086 648.103 400.163 648.01 400.26L636.01 412.15L630.94 407.04C630.847 406.943 630.735 406.866 630.611 406.814C630.487 406.761 630.354 406.734 630.22 406.734C630.086 406.734 629.953 406.761 629.829 406.814C629.705 406.866 629.593 406.943 629.5 407.04L627.57 408.95C627.473 409.043 627.396 409.155 627.344 409.279C627.291 409.403 627.264 409.536 627.264 409.67C627.264 409.804 627.291 409.937 627.344 410.061C627.396 410.185 627.473 410.297 627.57 410.39L635.26 418.15C635.353 418.247 635.465 418.324 635.589 418.376C635.713 418.429 635.846 418.456 635.98 418.456C636.114 418.456 636.247 418.429 636.371 418.376C636.495 418.324 636.607 418.247 636.7 418.15L651.34 403.63C651.44 403.538 651.52 403.427 651.575 403.303C651.63 403.179 651.659 403.045 651.661 402.909C651.663 402.774 651.637 402.639 651.586 402.514C651.534 402.388 651.457 402.275 651.36 402.18V402.19ZM651.36 402.19L649.45 400.26C649.357 400.163 649.245 400.086 649.121 400.034C648.997 399.981 648.864 399.954 648.73 399.954C648.596 399.954 648.463 399.981 648.339 400.034C648.215 400.086 648.103 400.163 648.01 400.26L636.01 412.15L630.94 407.04C630.847 406.943 630.735 406.866 630.611 406.814C630.487 406.761 630.354 406.734 630.22 406.734C630.086 406.734 629.953 406.761 629.829 406.814C629.705 406.866 629.593 406.943 629.5 407.04L627.57 408.95C627.473 409.043 627.396 409.155 627.344 409.279C627.291 409.403 627.264 409.536 627.264 409.67C627.264 409.804 627.291 409.937 627.344 410.061C627.396 410.185 627.473 410.297 627.57 410.39L635.26 418.15C635.353 418.247 635.465 418.324 635.589 418.376C635.713 418.429 635.846 418.456 635.98 418.456C636.114 418.456 636.247 418.429 636.371 418.376C636.495 418.324 636.607 418.247 636.7 418.15L651.34 403.63C651.44 403.538 651.52 403.427 651.575 403.303C651.63 403.179 651.659 403.045 651.661 402.909C651.663 402.774 651.637 402.639 651.586 402.514C651.534 402.388 651.457 402.275 651.36 402.18V402.19Z" fill="#3ACC6C"/>
<path opacity="0.1" d="M611.04 555.32L609.13 553.4C609.037 553.303 608.925 553.226 608.801 553.174C608.677 553.121 608.544 553.094 608.41 553.094C608.276 553.094 608.143 553.121 608.019 553.174C607.895 553.226 607.783 553.303 607.69 553.4L595.69 565.29L590.62 560.18C590.527 560.083 590.415 560.006 590.291 559.954C590.168 559.901 590.034 559.874 589.9 559.874C589.766 559.874 589.633 559.901 589.509 559.954C589.385 560.006 589.273 560.083 589.18 560.18L587.26 562.1C587.165 562.193 587.089 562.304 587.037 562.427C586.986 562.55 586.959 562.682 586.959 562.815C586.959 562.948 586.986 563.08 587.037 563.203C587.089 563.326 587.165 563.437 587.26 563.53L594.96 571.29C595.053 571.387 595.165 571.464 595.289 571.516C595.413 571.569 595.546 571.596 595.68 571.596C595.814 571.596 595.947 571.569 596.071 571.516C596.195 571.464 596.307 571.387 596.4 571.29L611.03 556.77C611.129 556.677 611.208 556.565 611.262 556.441C611.317 556.317 611.345 556.183 611.346 556.047C611.347 555.912 611.321 555.777 611.268 555.652C611.215 555.527 611.138 555.414 611.04 555.32V555.32ZM611.04 555.32L609.13 553.4C609.037 553.303 608.925 553.226 608.801 553.174C608.677 553.121 608.544 553.094 608.41 553.094C608.276 553.094 608.143 553.121 608.019 553.174C607.895 553.226 607.783 553.303 607.69 553.4L595.69 565.29L590.62 560.18C590.527 560.083 590.415 560.006 590.291 559.954C590.168 559.901 590.034 559.874 589.9 559.874C589.766 559.874 589.633 559.901 589.509 559.954C589.385 560.006 589.273 560.083 589.18 560.18L587.26 562.1C587.165 562.193 587.089 562.304 587.037 562.427C586.986 562.55 586.959 562.682 586.959 562.815C586.959 562.948 586.986 563.08 587.037 563.203C587.089 563.326 587.165 563.437 587.26 563.53L594.96 571.29C595.053 571.387 595.165 571.464 595.289 571.516C595.413 571.569 595.546 571.596 595.68 571.596C595.814 571.596 595.947 571.569 596.071 571.516C596.195 571.464 596.307 571.387 596.4 571.29L611.03 556.77C611.129 556.677 611.208 556.565 611.262 556.441C611.317 556.317 611.345 556.183 611.346 556.047C611.347 555.912 611.321 555.777 611.268 555.652C611.215 555.527 611.138 555.414 611.04 555.32V555.32ZM611.04 555.32L609.13 553.4C609.037 553.303 608.925 553.226 608.801 553.174C608.677 553.121 608.544 553.094 608.41 553.094C608.276 553.094 608.143 553.121 608.019 553.174C607.895 553.226 607.783 553.303 607.69 553.4L595.69 565.29L590.62 560.18C590.527 560.083 590.415 560.006 590.291 559.954C590.168 559.901 590.034 559.874 589.9 559.874C589.766 559.874 589.633 559.901 589.509 559.954C589.385 560.006 589.273 560.083 589.18 560.18L587.26 562.1C587.165 562.193 587.089 562.304 587.037 562.427C586.986 562.55 586.959 562.682 586.959 562.815C586.959 562.948 586.986 563.08 587.037 563.203C587.089 563.326 587.165 563.437 587.26 563.53L594.96 571.29C595.053 571.387 595.165 571.464 595.289 571.516C595.413 571.569 595.546 571.596 595.68 571.596C595.814 571.596 595.947 571.569 596.071 571.516C596.195 571.464 596.307 571.387 596.4 571.29L611.03 556.77C611.129 556.677 611.208 556.565 611.262 556.441C611.317 556.317 611.345 556.183 611.346 556.047C611.347 555.912 611.321 555.777 611.268 555.652C611.215 555.527 611.138 555.414 611.04 555.32V555.32ZM611.04 555.32L609.13 553.4C609.037 553.303 608.925 553.226 608.801 553.174C608.677 553.121 608.544 553.094 608.41 553.094C608.276 553.094 608.143 553.121 608.019 553.174C607.895 553.226 607.783 553.303 607.69 553.4L595.69 565.29L590.62 560.18C590.527 560.083 590.415 560.006 590.291 559.954C590.168 559.901 590.034 559.874 589.9 559.874C589.766 559.874 589.633 559.901 589.509 559.954C589.385 560.006 589.273 560.083 589.18 560.18L587.26 562.1C587.165 562.193 587.089 562.304 587.037 562.427C586.986 562.55 586.959 562.682 586.959 562.815C586.959 562.948 586.986 563.08 587.037 563.203C587.089 563.326 587.165 563.437 587.26 563.53L594.96 571.29C595.053 571.387 595.165 571.464 595.289 571.516C595.413 571.569 595.546 571.596 595.68 571.596C595.814 571.596 595.947 571.569 596.071 571.516C596.195 571.464 596.307 571.387 596.4 571.29L611.03 556.77C611.129 556.677 611.208 556.565 611.262 556.441C611.317 556.317 611.345 556.183 611.346 556.047C611.347 555.912 611.321 555.777 611.268 555.652C611.215 555.527 611.138 555.414 611.04 555.32V555.32ZM599.15 540.21C594.997 540.21 590.936 541.442 587.483 543.749C584.03 546.057 581.338 549.336 579.749 553.174C578.159 557.011 577.743 561.233 578.554 565.307C579.364 569.38 581.364 573.122 584.301 576.059C587.238 578.996 590.98 580.996 595.053 581.807C599.127 582.617 603.349 582.201 607.186 580.611C611.024 579.022 614.303 576.33 616.611 572.877C618.918 569.424 620.15 565.363 620.15 561.21C620.15 555.64 617.938 550.299 613.999 546.361C610.061 542.423 604.72 540.21 599.15 540.21V540.21ZM599.15 578.21C595.788 578.21 592.501 577.213 589.705 575.345C586.91 573.477 584.731 570.822 583.444 567.716C582.157 564.609 581.821 561.191 582.477 557.893C583.133 554.596 584.752 551.567 587.129 549.189C589.507 546.812 592.536 545.193 595.834 544.537C599.131 543.881 602.549 544.217 605.656 545.504C608.762 546.791 611.417 548.97 613.285 551.765C615.153 554.561 616.15 557.848 616.15 561.21C616.147 565.717 614.355 570.038 611.167 573.224C607.979 576.41 603.657 578.2 599.15 578.2V578.21ZM611.04 555.33L609.13 553.41C609.037 553.313 608.925 553.236 608.801 553.184C608.677 553.131 608.544 553.104 608.41 553.104C608.276 553.104 608.143 553.131 608.019 553.184C607.895 553.236 607.783 553.313 607.69 553.41L595.69 565.3L590.62 560.19C590.527 560.093 590.415 560.016 590.291 559.964C590.168 559.911 590.034 559.884 589.9 559.884C589.766 559.884 589.633 559.911 589.509 559.964C589.385 560.016 589.273 560.093 589.18 560.19L587.26 562.11C587.165 562.203 587.089 562.314 587.037 562.437C586.986 562.56 586.959 562.692 586.959 562.825C586.959 562.958 586.986 563.09 587.037 563.213C587.089 563.336 587.165 563.447 587.26 563.54L594.96 571.3C595.053 571.397 595.165 571.474 595.289 571.526C595.413 571.579 595.546 571.606 595.68 571.606C595.814 571.606 595.947 571.579 596.071 571.526C596.195 571.474 596.307 571.397 596.4 571.3L611.03 556.78C611.131 556.687 611.211 556.575 611.266 556.449C611.322 556.324 611.351 556.189 611.352 556.052C611.353 555.915 611.325 555.78 611.272 555.654C611.218 555.528 611.139 555.414 611.04 555.32V555.33ZM611.04 555.33L609.13 553.41C609.037 553.313 608.925 553.236 608.801 553.184C608.677 553.131 608.544 553.104 608.41 553.104C608.276 553.104 608.143 553.131 608.019 553.184C607.895 553.236 607.783 553.313 607.69 553.41L595.69 565.3L590.62 560.19C590.527 560.093 590.415 560.016 590.291 559.964C590.168 559.911 590.034 559.884 589.9 559.884C589.766 559.884 589.633 559.911 589.509 559.964C589.385 560.016 589.273 560.093 589.18 560.19L587.26 562.11C587.165 562.203 587.089 562.314 587.037 562.437C586.986 562.56 586.959 562.692 586.959 562.825C586.959 562.958 586.986 563.09 587.037 563.213C587.089 563.336 587.165 563.447 587.26 563.54L594.96 571.3C595.053 571.397 595.165 571.474 595.289 571.526C595.413 571.579 595.546 571.606 595.68 571.606C595.814 571.606 595.947 571.579 596.071 571.526C596.195 571.474 596.307 571.397 596.4 571.3L611.03 556.78C611.131 556.687 611.211 556.575 611.266 556.449C611.322 556.324 611.351 556.189 611.352 556.052C611.353 555.915 611.325 555.78 611.272 555.654C611.218 555.528 611.139 555.414 611.04 555.32V555.33ZM611.04 555.33L609.13 553.41C609.037 553.313 608.925 553.236 608.801 553.184C608.677 553.131 608.544 553.104 608.41 553.104C608.276 553.104 608.143 553.131 608.019 553.184C607.895 553.236 607.783 553.313 607.69 553.41L595.69 565.3L590.62 560.19C590.527 560.093 590.415 560.016 590.291 559.964C590.168 559.911 590.034 559.884 589.9 559.884C589.766 559.884 589.633 559.911 589.509 559.964C589.385 560.016 589.273 560.093 589.18 560.19L587.26 562.11C587.165 562.203 587.089 562.314 587.037 562.437C586.986 562.56 586.959 562.692 586.959 562.825C586.959 562.958 586.986 563.09 587.037 563.213C587.089 563.336 587.165 563.447 587.26 563.54L594.96 571.3C595.053 571.397 595.165 571.474 595.289 571.526C595.413 571.579 595.546 571.606 595.68 571.606C595.814 571.606 595.947 571.579 596.071 571.526C596.195 571.474 596.307 571.397 596.4 571.3L611.03 556.78C611.131 556.687 611.211 556.575 611.266 556.449C611.322 556.324 611.351 556.189 611.352 556.052C611.353 555.915 611.325 555.78 611.272 555.654C611.218 555.528 611.139 555.414 611.04 555.32V555.33ZM611.04 555.33L609.13 553.41C609.037 553.313 608.925 553.236 608.801 553.184C608.677 553.131 608.544 553.104 608.41 553.104C608.276 553.104 608.143 553.131 608.019 553.184C607.895 553.236 607.783 553.313 607.69 553.41L595.69 565.3L590.62 560.19C590.527 560.093 590.415 560.016 590.291 559.964C590.168 559.911 590.034 559.884 589.9 559.884C589.766 559.884 589.633 559.911 589.509 559.964C589.385 560.016 589.273 560.093 589.18 560.19L587.26 562.11C587.165 562.203 587.089 562.314 587.037 562.437C586.986 562.56 586.959 562.692 586.959 562.825C586.959 562.958 586.986 563.09 587.037 563.213C587.089 563.336 587.165 563.447 587.26 563.54L594.96 571.3C595.053 571.397 595.165 571.474 595.289 571.526C595.413 571.579 595.546 571.606 595.68 571.606C595.814 571.606 595.947 571.579 596.071 571.526C596.195 571.474 596.307 571.397 596.4 571.3L611.03 556.78C611.131 556.687 611.211 556.575 611.266 556.449C611.322 556.324 611.351 556.189 611.352 556.052C611.353 555.915 611.325 555.78 611.272 555.654C611.218 555.528 611.139 555.414 611.04 555.32V555.33ZM611.04 555.33L609.13 553.41C609.037 553.313 608.925 553.236 608.801 553.184C608.677 553.131 608.544 553.104 608.41 553.104C608.276 553.104 608.143 553.131 608.019 553.184C607.895 553.236 607.783 553.313 607.69 553.41L595.69 565.3L590.62 560.19C590.527 560.093 590.415 560.016 590.291 559.964C590.168 559.911 590.034 559.884 589.9 559.884C589.766 559.884 589.633 559.911 589.509 559.964C589.385 560.016 589.273 560.093 589.18 560.19L587.26 562.11C587.165 562.203 587.089 562.314 587.037 562.437C586.986 562.56 586.959 562.692 586.959 562.825C586.959 562.958 586.986 563.09 587.037 563.213C587.089 563.336 587.165 563.447 587.26 563.54L594.96 571.3C595.053 571.397 595.165 571.474 595.289 571.526C595.413 571.579 595.546 571.606 595.68 571.606C595.814 571.606 595.947 571.579 596.071 571.526C596.195 571.474 596.307 571.397 596.4 571.3L611.03 556.78C611.131 556.687 611.211 556.575 611.266 556.449C611.322 556.324 611.351 556.189 611.352 556.052C611.353 555.915 611.325 555.78 611.272 555.654C611.218 555.528 611.139 555.414 611.04 555.32V555.33Z" fill="#0214BB"/>
<path opacity="0.7" d="M853.85 172.46L851.94 170.57C851.847 170.473 851.735 170.396 851.611 170.344C851.487 170.291 851.354 170.264 851.22 170.264C851.086 170.264 850.953 170.291 850.829 170.344C850.705 170.396 850.593 170.473 850.5 170.57L844.26 176.77L842.01 179L841.82 179.18L840.65 180.35L838.56 182.42L833.49 177.31C833.397 177.213 833.285 177.136 833.161 177.084C833.037 177.031 832.904 177.004 832.77 177.004C832.636 177.004 832.503 177.031 832.379 177.084C832.255 177.136 832.143 177.213 832.05 177.31L830.12 179.22C830.023 179.313 829.946 179.425 829.894 179.549C829.841 179.673 829.814 179.806 829.814 179.94C829.814 180.074 829.841 180.207 829.894 180.331C829.946 180.455 830.023 180.567 830.12 180.66L837.38 187.99L837.81 188.42C837.97 188.579 838.177 188.684 838.4 188.72C838.554 188.741 838.712 188.726 838.859 188.676C839.007 188.625 839.141 188.541 839.25 188.43L845.31 182.43L847.31 180.43L853.87 173.92C853.969 173.825 854.047 173.711 854.099 173.585C854.152 173.458 854.178 173.323 854.177 173.186C854.175 173.049 854.145 172.914 854.089 172.789C854.032 172.664 853.951 172.552 853.85 172.46ZM853.85 172.46L851.94 170.57C851.847 170.473 851.735 170.396 851.611 170.344C851.487 170.291 851.354 170.264 851.22 170.264C851.086 170.264 850.953 170.291 850.829 170.344C850.705 170.396 850.593 170.473 850.5 170.57L844.26 176.77L842.01 179L841.82 179.18L840.65 180.35L838.56 182.42L833.49 177.31C833.397 177.213 833.285 177.136 833.161 177.084C833.037 177.031 832.904 177.004 832.77 177.004C832.636 177.004 832.503 177.031 832.379 177.084C832.255 177.136 832.143 177.213 832.05 177.31L830.12 179.22C830.023 179.313 829.946 179.425 829.894 179.549C829.841 179.673 829.814 179.806 829.814 179.94C829.814 180.074 829.841 180.207 829.894 180.331C829.946 180.455 830.023 180.567 830.12 180.66L837.38 187.99L837.81 188.42C837.97 188.579 838.177 188.684 838.4 188.72C838.554 188.741 838.712 188.726 838.859 188.676C839.007 188.625 839.141 188.541 839.25 188.43L845.31 182.43L847.31 180.43L853.87 173.92C853.969 173.825 854.047 173.711 854.099 173.585C854.152 173.458 854.178 173.323 854.177 173.186C854.175 173.049 854.145 172.914 854.089 172.789C854.032 172.664 853.951 172.552 853.85 172.46ZM853.85 172.46L851.94 170.57C851.847 170.473 851.735 170.396 851.611 170.344C851.487 170.291 851.354 170.264 851.22 170.264C851.086 170.264 850.953 170.291 850.829 170.344C850.705 170.396 850.593 170.473 850.5 170.57L844.26 176.77L842.01 179L841.82 179.18L840.65 180.35L838.56 182.42L833.49 177.31C833.397 177.213 833.285 177.136 833.161 177.084C833.037 177.031 832.904 177.004 832.77 177.004C832.636 177.004 832.503 177.031 832.379 177.084C832.255 177.136 832.143 177.213 832.05 177.31L830.12 179.22C830.023 179.313 829.946 179.425 829.894 179.549C829.841 179.673 829.814 179.806 829.814 179.94C829.814 180.074 829.841 180.207 829.894 180.331C829.946 180.455 830.023 180.567 830.12 180.66L837.38 187.99L837.81 188.42C837.97 188.579 838.177 188.684 838.4 188.72C838.554 188.741 838.712 188.726 838.859 188.676C839.007 188.625 839.141 188.541 839.25 188.43L845.31 182.43L847.31 180.43L853.87 173.92C853.969 173.825 854.047 173.711 854.099 173.585C854.152 173.458 854.178 173.323 854.177 173.186C854.175 173.049 854.145 172.914 854.089 172.789C854.032 172.664 853.951 172.552 853.85 172.46ZM853.85 172.46L851.94 170.57C851.847 170.473 851.735 170.396 851.611 170.344C851.487 170.291 851.354 170.264 851.22 170.264C851.086 170.264 850.953 170.291 850.829 170.344C850.705 170.396 850.593 170.473 850.5 170.57L844.26 176.77L842.01 179L841.82 179.18L840.65 180.35L838.56 182.42L833.49 177.31C833.397 177.213 833.285 177.136 833.161 177.084C833.037 177.031 832.904 177.004 832.77 177.004C832.636 177.004 832.503 177.031 832.379 177.084C832.255 177.136 832.143 177.213 832.05 177.31L830.12 179.22C830.023 179.313 829.946 179.425 829.894 179.549C829.841 179.673 829.814 179.806 829.814 179.94C829.814 180.074 829.841 180.207 829.894 180.331C829.946 180.455 830.023 180.567 830.12 180.66L837.38 187.99L837.81 188.42C837.97 188.579 838.177 188.684 838.4 188.72C838.554 188.741 838.712 188.726 838.859 188.676C839.007 188.625 839.141 188.541 839.25 188.43L845.31 182.43L847.31 180.43L853.87 173.92C853.969 173.825 854.047 173.711 854.099 173.585C854.152 173.458 854.178 173.323 854.177 173.186C854.175 173.049 854.145 172.914 854.089 172.789C854.032 172.664 853.951 172.552 853.85 172.46ZM841.96 157.35C836.967 157.308 832.123 159.047 828.296 162.254C824.469 165.461 821.91 169.927 821.078 174.85C820.247 179.773 821.196 184.832 823.756 189.118C826.317 193.405 830.321 196.639 835.05 198.24C835.27 198.32 835.49 198.4 835.72 198.46C840.309 199.894 845.25 199.711 849.72 197.94C850.761 197.53 851.765 197.032 852.72 196.45C856.7 194.109 859.798 190.521 861.533 186.241C863.268 181.962 863.545 177.23 862.319 172.778C861.094 168.326 858.436 164.401 854.755 161.612C851.075 158.823 846.578 157.325 841.96 157.35V157.35ZM849.41 193.62C848.705 193.968 847.977 194.265 847.23 194.51C844.044 195.54 840.627 195.613 837.4 194.72C836.95 194.59 836.5 194.45 836.07 194.29C832.395 192.934 829.302 190.35 827.312 186.976C825.323 183.602 824.559 179.645 825.151 175.773C825.743 171.901 827.654 168.352 830.56 165.726C833.467 163.101 837.191 161.559 841.103 161.363C845.015 161.166 848.875 162.327 852.03 164.648C855.185 166.969 857.442 170.309 858.419 174.102C859.396 177.895 859.033 181.909 857.391 185.466C855.75 189.022 852.93 191.902 849.41 193.62V193.62ZM853.85 172.46L851.94 170.57C851.847 170.473 851.735 170.396 851.611 170.344C851.487 170.291 851.354 170.264 851.22 170.264C851.086 170.264 850.953 170.291 850.829 170.344C850.705 170.396 850.593 170.473 850.5 170.57L844.26 176.77L842.01 179L841.82 179.18L840.65 180.35L838.56 182.42L833.49 177.31C833.397 177.213 833.285 177.136 833.161 177.084C833.037 177.031 832.904 177.004 832.77 177.004C832.636 177.004 832.503 177.031 832.379 177.084C832.255 177.136 832.143 177.213 832.05 177.31L830.12 179.22C830.023 179.313 829.946 179.425 829.894 179.549C829.841 179.673 829.814 179.806 829.814 179.94C829.814 180.074 829.841 180.207 829.894 180.331C829.946 180.455 830.023 180.567 830.12 180.66L837.38 187.99L837.81 188.42C837.97 188.579 838.177 188.684 838.4 188.72C838.554 188.741 838.712 188.726 838.859 188.676C839.007 188.625 839.141 188.541 839.25 188.43L845.31 182.43L847.31 180.43L853.87 173.92C853.969 173.825 854.047 173.711 854.099 173.585C854.152 173.458 854.178 173.323 854.177 173.186C854.175 173.049 854.145 172.914 854.089 172.789C854.032 172.664 853.951 172.552 853.85 172.46V172.46ZM853.85 172.46L851.94 170.57C851.847 170.473 851.735 170.396 851.611 170.344C851.487 170.291 851.354 170.264 851.22 170.264C851.086 170.264 850.953 170.291 850.829 170.344C850.705 170.396 850.593 170.473 850.5 170.57L844.26 176.77L842.01 179L841.82 179.18L840.65 180.35L838.56 182.42L833.49 177.31C833.397 177.213 833.285 177.136 833.161 177.084C833.037 177.031 832.904 177.004 832.77 177.004C832.636 177.004 832.503 177.031 832.379 177.084C832.255 177.136 832.143 177.213 832.05 177.31L830.12 179.22C830.023 179.313 829.946 179.425 829.894 179.549C829.841 179.673 829.814 179.806 829.814 179.94C829.814 180.074 829.841 180.207 829.894 180.331C829.946 180.455 830.023 180.567 830.12 180.66L837.38 187.99L837.81 188.42C837.97 188.579 838.177 188.684 838.4 188.72C838.554 188.741 838.712 188.726 838.859 188.676C839.007 188.625 839.141 188.541 839.25 188.43L845.31 182.43L847.31 180.43L853.87 173.92C853.969 173.825 854.047 173.711 854.099 173.585C854.152 173.458 854.178 173.323 854.177 173.186C854.175 173.049 854.145 172.914 854.089 172.789C854.032 172.664 853.951 172.552 853.85 172.46V172.46ZM853.85 172.46L851.94 170.57C851.847 170.473 851.735 170.396 851.611 170.344C851.487 170.291 851.354 170.264 851.22 170.264C851.086 170.264 850.953 170.291 850.829 170.344C850.705 170.396 850.593 170.473 850.5 170.57L844.26 176.77L842.01 179L841.82 179.18L840.65 180.35L838.56 182.42L833.49 177.31C833.397 177.213 833.285 177.136 833.161 177.084C833.037 177.031 832.904 177.004 832.77 177.004C832.636 177.004 832.503 177.031 832.379 177.084C832.255 177.136 832.143 177.213 832.05 177.31L830.12 179.22C830.023 179.313 829.946 179.425 829.894 179.549C829.841 179.673 829.814 179.806 829.814 179.94C829.814 180.074 829.841 180.207 829.894 180.331C829.946 180.455 830.023 180.567 830.12 180.66L837.38 187.99L837.81 188.42C837.97 188.579 838.177 188.684 838.4 188.72C838.554 188.741 838.712 188.726 838.859 188.676C839.007 188.625 839.141 188.541 839.25 188.43L845.31 182.43L847.31 180.43L853.87 173.92C853.969 173.825 854.047 173.711 854.099 173.585C854.152 173.458 854.178 173.323 854.177 173.186C854.175 173.049 854.145 172.914 854.089 172.789C854.032 172.664 853.951 172.552 853.85 172.46V172.46ZM853.85 172.46L851.94 170.57C851.847 170.473 851.735 170.396 851.611 170.344C851.487 170.291 851.354 170.264 851.22 170.264C851.086 170.264 850.953 170.291 850.829 170.344C850.705 170.396 850.593 170.473 850.5 170.57L844.26 176.77L842.01 179L841.82 179.18L840.65 180.35L838.56 182.42L833.49 177.31C833.397 177.213 833.285 177.136 833.161 177.084C833.037 177.031 832.904 177.004 832.77 177.004C832.636 177.004 832.503 177.031 832.379 177.084C832.255 177.136 832.143 177.213 832.05 177.31L830.12 179.22C830.023 179.313 829.946 179.425 829.894 179.549C829.841 179.673 829.814 179.806 829.814 179.94C829.814 180.074 829.841 180.207 829.894 180.331C829.946 180.455 830.023 180.567 830.12 180.66L837.38 187.99L837.81 188.42C837.97 188.579 838.177 188.684 838.4 188.72C838.554 188.741 838.712 188.726 838.859 188.676C839.007 188.625 839.141 188.541 839.25 188.43L845.31 182.43L847.31 180.43L853.87 173.92C853.969 173.825 854.047 173.711 854.099 173.585C854.152 173.458 854.178 173.323 854.177 173.186C854.175 173.049 854.145 172.914 854.089 172.789C854.032 172.664 853.951 172.552 853.85 172.46V172.46ZM853.85 172.46L851.94 170.57C851.847 170.473 851.735 170.396 851.611 170.344C851.487 170.291 851.354 170.264 851.22 170.264C851.086 170.264 850.953 170.291 850.829 170.344C850.705 170.396 850.593 170.473 850.5 170.57L844.26 176.77L842.01 179L841.82 179.18L840.65 180.35L838.56 182.42L833.49 177.31C833.397 177.213 833.285 177.136 833.161 177.084C833.037 177.031 832.904 177.004 832.77 177.004C832.636 177.004 832.503 177.031 832.379 177.084C832.255 177.136 832.143 177.213 832.05 177.31L830.12 179.22C830.023 179.313 829.946 179.425 829.894 179.549C829.841 179.673 829.814 179.806 829.814 179.94C829.814 180.074 829.841 180.207 829.894 180.331C829.946 180.455 830.023 180.567 830.12 180.66L837.38 187.99L837.81 188.42C837.97 188.579 838.177 188.684 838.4 188.72C838.554 188.741 838.712 188.726 838.859 188.676C839.007 188.625 839.141 188.541 839.25 188.43L845.31 182.43L847.31 180.43L853.87 173.92C853.969 173.825 854.047 173.711 854.099 173.585C854.152 173.458 854.178 173.323 854.177 173.186C854.175 173.049 854.145 172.914 854.089 172.789C854.032 172.664 853.951 172.552 853.85 172.46V172.46Z" fill="#3ACC6C"/>
<path d="M586.3 81.43H187.96C176.704 81.43 167.58 90.5544 167.58 101.81C167.58 113.066 176.704 122.19 187.96 122.19H586.3C597.556 122.19 606.68 113.066 606.68 101.81C606.68 90.5544 597.556 81.43 586.3 81.43Z" fill="#0214BB"/>
<path d="M763.91 158H187.96C176.704 158 167.58 167.124 167.58 178.38C167.58 189.636 176.704 198.76 187.96 198.76H763.91C775.166 198.76 784.29 189.636 784.29 178.38C784.29 167.124 775.166 158 763.91 158Z" fill="#0214BB"/>
<path opacity="0.1" d="M623.72 234.57H187.96C176.704 234.57 167.58 243.694 167.58 254.95C167.58 266.206 176.704 275.33 187.96 275.33H623.72C634.976 275.33 644.1 266.206 644.1 254.95C644.1 243.694 634.976 234.57 623.72 234.57Z" fill="#0214BB"/>
<path opacity="0.1" d="M763.91 311.14H187.96C176.704 311.14 167.58 320.264 167.58 331.52C167.58 342.776 176.704 351.9 187.96 351.9H763.91C775.166 351.9 784.29 342.776 784.29 331.52C784.29 320.264 775.166 311.14 763.91 311.14Z" fill="#0214BB"/>
<path d="M562.58 387.71H187.96C176.704 387.71 167.58 396.834 167.58 408.09C167.58 419.346 176.704 428.47 187.96 428.47H562.58C573.836 428.47 582.96 419.346 582.96 408.09C582.96 396.834 573.836 387.71 562.58 387.71Z" fill="#0214BB"/>
<path opacity="0.1" d="M763.91 464.29H187.96C176.704 464.29 167.58 473.414 167.58 484.67C167.58 495.926 176.704 505.05 187.96 505.05H763.91C775.166 505.05 784.29 495.926 784.29 484.67C784.29 473.414 775.166 464.29 763.91 464.29Z" fill="#0214BB"/>
<path d="M520.3 540.86H187.96C176.704 540.86 167.58 549.984 167.58 561.24C167.58 572.496 176.704 581.62 187.96 581.62H520.3C531.556 581.62 540.68 572.496 540.68 561.24C540.68 549.984 531.556 540.86 520.3 540.86Z" fill="#0214BB"/>
<path opacity="0.1" d="M744.38 80.78C740.227 80.78 736.166 82.0116 732.713 84.3191C729.26 86.6266 726.568 89.9064 724.979 93.7436C723.389 97.5809 722.973 101.803 723.784 105.877C724.594 109.951 726.594 113.692 729.531 116.629C732.468 119.566 736.209 121.566 740.283 122.376C744.357 123.187 748.579 122.771 752.416 121.181C756.254 119.592 759.533 116.9 761.841 113.447C764.148 109.994 765.38 105.933 765.38 101.78C765.38 96.2105 763.168 90.869 759.229 86.9308C755.291 82.9925 749.95 80.78 744.38 80.78V80.78ZM744.38 118.78C741.018 118.78 737.731 117.783 734.935 115.915C732.14 114.047 729.961 111.392 728.674 108.286C727.387 105.179 727.051 101.761 727.707 98.4635C728.363 95.1658 729.982 92.1367 732.359 89.7592C734.737 87.3817 737.766 85.7626 741.063 85.1067C744.361 84.4507 747.779 84.7874 750.886 86.0741C753.992 87.3607 756.647 89.5397 758.515 92.3353C760.383 95.1309 761.38 98.4177 761.38 101.78C761.384 104.013 760.947 106.224 760.094 108.287C759.24 110.35 757.988 112.225 756.408 113.803C754.829 115.38 752.953 116.631 750.889 117.481C748.825 118.332 746.613 118.767 744.38 118.76V118.78Z" fill="#0214BB"/>
<path opacity="0.1" d="M750.82 110.89L753.47 108.25C753.58 108.14 753.667 108.01 753.726 107.867C753.786 107.724 753.816 107.57 753.816 107.415C753.816 107.26 753.786 107.106 753.726 106.963C753.667 106.82 753.58 106.69 753.47 106.58L748.69 101.81L753.46 97.04C753.57 96.9304 753.657 96.8003 753.716 96.657C753.776 96.5137 753.806 96.3601 753.806 96.205C753.806 96.0499 753.776 95.8963 753.716 95.753C753.657 95.6098 753.57 95.4796 753.46 95.37L750.81 92.73C750.701 92.6206 750.572 92.5337 750.43 92.4744C750.287 92.4151 750.134 92.3846 749.98 92.3846C749.826 92.3846 749.673 92.4151 749.531 92.4744C749.388 92.5337 749.259 92.6206 749.15 92.73L744.38 97.5L739.61 92.73C739.5 92.6202 739.37 92.5332 739.227 92.4738C739.084 92.4144 738.93 92.3838 738.775 92.3838C738.62 92.3838 738.466 92.4144 738.323 92.4738C738.18 92.5332 738.05 92.6202 737.94 92.73L735.3 95.37C735.189 95.4789 735.101 95.6089 735.041 95.7522C734.981 95.8956 734.95 96.0495 734.95 96.205C734.95 96.3605 734.981 96.5144 735.041 96.6578C735.101 96.8012 735.189 96.9311 735.3 97.04L740.07 101.81L735.31 106.57C735.199 106.679 735.111 106.809 735.051 106.952C734.991 107.096 734.96 107.25 734.96 107.405C734.96 107.56 734.991 107.714 735.051 107.858C735.111 108.001 735.199 108.131 735.31 108.24L737.95 110.88C738.06 110.99 738.19 111.077 738.333 111.136C738.476 111.196 738.63 111.226 738.785 111.226C738.94 111.226 739.094 111.196 739.237 111.136C739.38 111.077 739.51 110.99 739.62 110.88L744.39 106.11L749.16 110.88C749.268 110.99 749.397 111.078 749.539 111.138C749.681 111.198 749.834 111.229 749.988 111.23C750.142 111.231 750.295 111.202 750.438 111.143C750.581 111.085 750.711 110.999 750.82 110.89V110.89Z" fill="#0214BB"/>
<path opacity="0.1" d="M920.69 157.35C916.537 157.35 912.476 158.582 909.023 160.889C905.57 163.197 902.878 166.476 901.289 170.314C899.699 174.151 899.283 178.373 900.094 182.447C900.904 186.52 902.904 190.262 905.841 193.199C908.778 196.136 912.519 198.136 916.593 198.946C920.667 199.757 924.889 199.341 928.726 197.751C932.564 196.162 935.843 193.47 938.151 190.017C940.458 186.564 941.69 182.503 941.69 178.35C941.698 175.59 941.16 172.856 940.108 170.304C939.055 167.753 937.509 165.435 935.557 163.483C933.605 161.531 931.287 159.985 928.736 158.932C926.184 157.88 923.45 157.342 920.69 157.35V157.35ZM920.69 195.35C916.934 195.356 913.281 194.119 910.302 191.83C907.324 189.541 905.187 186.33 904.226 182.698C903.265 179.067 903.534 175.219 904.991 171.757C906.448 168.294 909.011 165.412 912.279 163.56C915.547 161.708 919.337 160.99 923.056 161.52C926.775 162.049 930.214 163.795 932.835 166.485C935.457 169.175 937.114 172.658 937.547 176.389C937.981 180.121 937.166 183.891 935.23 187.11C933.72 189.617 931.588 191.693 929.041 193.134C926.494 194.576 923.617 195.336 920.69 195.34V195.35Z" fill="#0214BB"/>
<path opacity="0.1" d="M927.11 187.46L929.76 184.82C929.87 184.71 929.957 184.58 930.016 184.437C930.076 184.294 930.106 184.14 930.106 183.985C930.106 183.83 930.076 183.676 930.016 183.533C929.957 183.39 929.87 183.26 929.76 183.15L924.98 178.38L929.76 173.61C929.869 173.501 929.956 173.372 930.016 173.23C930.075 173.087 930.105 172.934 930.105 172.78C930.105 172.626 930.075 172.473 930.016 172.331C929.956 172.188 929.869 172.059 929.76 171.95L927.11 169.3C927.001 169.191 926.872 169.104 926.729 169.044C926.587 168.985 926.434 168.955 926.28 168.955C926.126 168.955 925.973 168.985 925.831 169.044C925.688 169.104 925.559 169.191 925.45 169.3L920.69 174.07L915.92 169.3C915.811 169.191 915.682 169.104 915.539 169.044C915.397 168.985 915.244 168.955 915.09 168.955C914.936 168.955 914.783 168.985 914.641 169.044C914.498 169.104 914.369 169.191 914.26 169.3L911.61 171.95C911.501 172.059 911.414 172.188 911.354 172.331C911.295 172.473 911.265 172.626 911.265 172.78C911.265 172.934 911.295 173.087 911.354 173.23C911.414 173.372 911.501 173.501 911.61 173.61L916.38 178.38L911.61 183.15C911.5 183.26 911.413 183.39 911.354 183.533C911.294 183.676 911.264 183.83 911.264 183.985C911.264 184.14 911.294 184.294 911.354 184.437C911.413 184.58 911.5 184.71 911.61 184.82L914.26 187.46C914.367 187.572 914.496 187.661 914.639 187.722C914.781 187.783 914.935 187.814 915.09 187.814C915.245 187.814 915.399 187.783 915.541 187.722C915.684 187.661 915.813 187.572 915.92 187.46L920.69 182.69L925.47 187.46C925.689 187.675 925.983 187.795 926.29 187.795C926.597 187.795 926.891 187.675 927.11 187.46Z" fill="#0214BB"/>
<g opacity="0.7">
<path opacity="0.7" d="M677.32 540.21C673.167 540.21 669.106 541.442 665.653 543.749C662.2 546.057 659.508 549.336 657.919 553.174C656.329 557.011 655.913 561.233 656.724 565.307C657.534 569.38 659.534 573.122 662.471 576.059C665.408 578.996 669.15 580.996 673.223 581.807C677.297 582.617 681.519 582.201 685.356 580.611C689.194 579.022 692.473 576.33 694.781 572.877C697.088 569.424 698.32 565.363 698.32 561.21C698.32 555.64 696.108 550.299 692.169 546.361C688.231 542.423 682.89 540.21 677.32 540.21ZM677.32 578.21C673.958 578.21 670.671 577.213 667.875 575.345C665.08 573.477 662.901 570.822 661.614 567.716C660.327 564.609 659.991 561.191 660.647 557.893C661.303 554.596 662.922 551.567 665.299 549.189C667.677 546.812 670.706 545.193 674.003 544.537C677.301 543.881 680.719 544.217 683.826 545.504C686.932 546.791 689.587 548.97 691.455 551.765C693.323 554.561 694.32 557.848 694.32 561.21C694.325 563.444 693.889 565.656 693.037 567.72C692.184 569.785 690.932 571.66 689.352 573.239C687.772 574.818 685.896 576.069 683.831 576.92C681.766 577.772 679.554 578.207 677.32 578.2V578.21Z" fill="#FF6584"/>
<path opacity="0.7" d="M683.76 570.32L686.4 567.68C686.51 567.57 686.597 567.44 686.656 567.297C686.716 567.154 686.746 567 686.746 566.845C686.746 566.69 686.716 566.536 686.656 566.393C686.597 566.25 686.51 566.12 686.4 566.01L681.63 561.24L686.4 556.47C686.509 556.361 686.596 556.232 686.656 556.089C686.715 555.947 686.745 555.794 686.745 555.64C686.745 555.486 686.715 555.333 686.656 555.19C686.596 555.048 686.509 554.919 686.4 554.81L683.76 552.16C683.65 552.05 683.52 551.963 683.377 551.904C683.234 551.844 683.08 551.814 682.925 551.814C682.77 551.814 682.616 551.844 682.473 551.904C682.33 551.963 682.2 552.05 682.09 552.16L677.32 556.93L672.55 552.16C672.441 552.051 672.312 551.964 672.169 551.904C672.027 551.845 671.874 551.815 671.72 551.815C671.566 551.815 671.413 551.845 671.271 551.904C671.128 551.964 670.999 552.051 670.89 552.16L668.24 554.81C668.131 554.919 668.044 555.048 667.984 555.19C667.925 555.333 667.895 555.486 667.895 555.64C667.895 555.794 667.925 555.947 667.984 556.089C668.044 556.232 668.131 556.361 668.24 556.47L673.01 561.24L668.24 566.01C668.13 566.12 668.043 566.25 667.984 566.393C667.924 566.536 667.894 566.69 667.894 566.845C667.894 567 667.924 567.154 667.984 567.297C668.043 567.44 668.13 567.57 668.24 567.68L670.89 570.32C670.997 570.432 671.126 570.521 671.269 570.582C671.411 570.643 671.565 570.674 671.72 570.674C671.875 570.674 672.029 570.643 672.171 570.582C672.314 570.521 672.443 570.432 672.55 570.32L677.32 565.55L682.09 570.32C682.2 570.43 682.33 570.517 682.473 570.576C682.616 570.636 682.77 570.666 682.925 570.666C683.08 570.666 683.234 570.636 683.377 570.576C683.52 570.517 683.65 570.43 683.76 570.32V570.32Z" fill="#FF6584"/>
</g>
<path opacity="0.1" d="M766.54 815.07C832.196 815.07 885.42 812.473 885.42 809.27C885.42 806.067 832.196 803.47 766.54 803.47C700.884 803.47 647.66 806.067 647.66 809.27C647.66 812.473 700.884 815.07 766.54 815.07Z" fill="#0214BB"/>
<path d="M859.04 238.31L848.24 242.14L844.32 235.64C841.32 230.64 837.16 223.8 834.09 218.83C828.67 210.08 835.76 196.76 835.76 196.76C835.76 196.76 837 183.44 841.58 179.28C846.16 175.12 847.41 196.76 847.41 196.76C865.72 205.09 855.91 224.65 855.91 224.65L857.69 232.42L859.04 238.31Z" fill="#A1616A"/>
<path opacity="0.1" d="M859.04 238.31L848.24 242.14L844.32 235.64V235.07C844.32 235.07 850.51 230.82 857.73 232.42L859.04 238.31Z" fill="black"/>
<path d="M841.58 282.11L846.99 277.57L844.28 236.35C844.28 236.35 858.23 226.78 868.64 241.77C868.64 241.77 868.22 250.93 868.64 253.43C869.06 255.93 865.73 258.43 868.64 260.92C871.55 263.41 868.64 271.74 868.64 271.74C868.64 271.74 871.93 277.57 874.01 279.24C876.09 280.91 878.18 294.64 874.01 297.56C869.84 300.48 861.94 307.13 861.94 310.05C861.94 312.97 851.94 320.05 851.94 320.05L843.19 308.39L841.58 282.11Z" fill="#5A5773"/>
<path d="M724.58 532.34C704.4 523.78 708.88 502.87 712.68 492.34C713.442 490.207 714.333 488.124 715.35 486.1L726.69 479.25C726.69 479.25 729 485.14 731.47 493.05C737.18 511.36 743.77 540.48 724.58 532.34Z" fill="#A1616A"/>
<path d="M752.32 723.13C750.952 725.788 749.943 728.616 749.32 731.54C748.338 736.254 747.918 741.067 748.07 745.88C748.15 749.21 748.43 751.39 748.43 751.39L725.95 766.85C725.95 766.85 726.08 765.04 726.3 762.38C726.88 755.3 728.09 742.16 729.23 740.46C730.02 739.27 730.57 734.53 730.92 730.14C731.27 725.75 731.41 721.88 731.41 721.88C731.41 721.88 758.41 711.73 752.32 723.13Z" fill="#A1616A"/>
<path d="M805.41 734.22C805.41 734.22 805.41 738.52 805.25 743.52C805.09 748.52 804.79 754.41 804.16 757.17C803.58 759.68 803.54 764.32 803.65 768.59C803.8 773.59 804.16 778.09 804.16 778.09C804.16 778.09 781.16 756.39 783.55 754.67C784.18 754.21 784.8 752.36 785.37 749.9C786.07 746.9 786.7 742.9 787.17 739.49C787.73 735.49 788.08 732.19 788.08 732.19L805.41 734.22Z" fill="#A1616A"/>
<path opacity="0.1" d="M752.32 723.13C750.952 725.788 749.943 728.616 749.32 731.54C743.167 731.387 737.025 730.919 730.92 730.14C731.26 725.84 731.41 721.88 731.41 721.88C731.41 721.88 758.41 711.73 752.32 723.13Z" fill="black"/>
<path opacity="0.1" d="M805.41 734.22C805.41 734.22 805.41 738.52 805.25 743.52C798.09 745.35 790.73 741.69 787.17 739.52C787.73 735.52 788.08 732.22 788.08 732.22L805.41 734.22Z" fill="black"/>
<path d="M852.4 521.57C843.24 541.57 839.49 565.28 839.49 565.28L836.17 585.28C836.17 585.28 837.83 594.02 836.17 597.35C834.51 600.68 831.17 606.09 831.17 606.09C831.17 606.09 833.67 626.5 831.17 628.57C828.67 630.64 831.17 643.15 831.17 643.15L822.84 685.2L811.18 739.32C799.94 748.48 784.98 736.82 784.98 736.82L788.28 701.44C788.28 701.44 793.28 639.44 791.2 636.9C789.12 634.36 792.03 626.5 792.03 626.5C792.03 626.5 794.95 619 792.87 616.08C790.79 613.16 793.28 606.92 793.28 606.92C793.28 606.92 792.45 581.53 794.95 575.7C797.45 569.87 794.95 533.8 794.95 533.8L793.95 522.57L793.38 516.35L793.32 515.74C793.32 515.74 792.94 518.24 792.32 522.1C790.48 533.85 786.56 558.2 785.01 563.21C783.937 566.805 782.489 570.278 780.69 573.57C780.69 573.57 782.85 586.06 780.69 589.39C778.53 592.72 780.36 596.47 780.36 596.47C780.36 596.47 782.44 606.87 776.19 611.04C769.94 615.21 776.19 617.28 776.19 617.28C776.19 617.28 771.61 627.28 769.95 631.44C768.29 635.6 769.95 641.44 769.95 641.44L766.69 675.15C766.69 675.15 763.77 689.3 764.19 698.88C764.61 708.46 760.39 730.57 760.39 730.57C760.39 730.57 728.33 730.57 723.39 726.82C718.45 723.07 731.69 686.39 731.69 686.39C731.69 686.39 735.44 622.27 734.6 620.6C733.76 618.93 734.6 606.45 737.52 603.95C740.44 601.45 737.52 596.46 737.52 596.46C737.52 596.46 736.69 586.46 737.52 583.97C738.35 581.48 737.39 573.14 737.39 573.14C737.39 573.14 734.6 552.74 734.19 541.08C733.78 529.42 731.69 503.19 731.69 503.19C731.69 503.19 733.87 486.97 734.2 479.25C734.32 476.41 735.59 472.87 737.15 469.53C738.953 465.756 741.025 462.117 743.35 458.64C743.35 458.64 842.02 429.5 846.19 432.41C847.29 433.18 848.89 438.41 850.47 445.99C854.84 467.12 859.14 506.81 852.4 521.57Z" fill="#605D82"/>
<path d="M791.61 267.04C807.477 267.04 820.34 254.177 820.34 238.31C820.34 222.443 807.477 209.58 791.61 209.58C775.743 209.58 762.88 222.443 762.88 238.31C762.88 254.177 775.743 267.04 791.61 267.04Z" fill="#A1616A"/>
<path opacity="0.1" d="M850.44 445.99C847.13 447.68 844.91 448.86 844.91 448.86C844.91 448.86 798.28 470.93 784.98 469.68C774.72 468.68 748.53 469.24 737.12 469.53C738.923 465.756 740.995 462.117 743.32 458.64C743.32 458.64 841.99 429.5 846.16 432.41C847.26 433.18 848.86 438.39 850.44 445.99Z" fill="black"/>
<path d="M771.63 284.19C771.63 284.19 744.98 288.36 738.74 292.52C732.5 296.68 720 304.57 720 321.67C720 338.77 717.09 356.22 715.42 361.22C713.75 366.22 741.69 406.57 741.69 406.57L731.69 467.77C731.69 467.77 771.69 466.53 785.01 467.77C798.33 469.01 844.94 446.96 844.94 446.96C844.94 446.96 872.42 432.38 878.25 431.96C884.08 431.54 866.59 399.9 866.59 399.9C866.59 399.9 839.53 348.69 844.11 340.36C848.69 332.03 852.02 319.96 852.02 319.96L847.02 277.49C847.02 277.49 839.53 275 833.28 279.57C827.03 284.14 805.8 281.66 805.8 281.66L771.63 284.19Z" fill="#5A5773"/>
<path opacity="0.1" d="M726.46 358.3L716.05 361.22L713.13 400.36C713.13 400.36 716.88 410.76 713.13 414.1C709.38 417.44 708.55 488.62 708.55 488.62C708.55 488.62 720.63 497.37 734.78 490.7C734.78 490.7 732.7 482.79 738.95 454.06C745.2 425.33 745.19 410.76 745.19 410.76C745.19 410.76 745.19 374.96 748.11 369.13C751.03 363.3 748.11 348.73 748.11 348.73C748.11 348.73 742.28 340.82 742.69 337.9C743.1 334.98 726.46 358.3 726.46 358.3Z" fill="black"/>
<path opacity="0.1" d="M731.45 493.05C725.319 495.118 718.643 494.872 712.68 492.36C713.442 490.227 714.333 488.144 715.35 486.12L726.69 479.25C726.69 479.25 728.98 485.14 731.45 493.05Z" fill="black"/>
<path d="M725.83 358.3L715.42 361.22L712.51 400.36C712.51 400.36 716.26 410.76 712.51 414.1C708.76 417.44 707.93 488.62 707.93 488.62C707.93 488.62 720 497.37 734.16 490.7C734.16 490.7 732.08 482.79 738.32 454.06C744.56 425.33 744.57 410.76 744.57 410.76C744.57 410.76 744.57 374.96 747.48 369.13C750.39 363.3 747.48 348.73 747.48 348.73C747.48 348.73 741.65 340.82 742.07 337.9C742.49 334.98 725.83 358.3 725.83 358.3Z" fill="#5A5773"/>
<path opacity="0.1" d="M832.42 364.57C832.42 364.57 827.01 411.2 811.18 419.94C811.18 419.92 846.57 409.93 832.42 364.57Z" fill="black"/>
<path opacity="0.1" d="M752.9 368.71C752.9 368.71 772.46 378.29 767.9 384.95C763.34 391.61 752.9 368.71 752.9 368.71Z" fill="black"/>
<path opacity="0.1" d="M752.9 387.87C752.9 387.87 765.39 400.77 762.9 405.35C760.41 409.93 752.9 387.87 752.9 387.87Z" fill="black"/>
<path opacity="0.1" d="M853.69 280.86C853.69 280.86 858.59 289.19 859.06 294.6C859.53 300.01 853.69 280.86 853.69 280.86Z" fill="black"/>
<path opacity="0.1" d="M853.69 269.62C853.69 269.62 856.15 267.54 862.43 269.62C868.71 271.7 853.69 269.62 853.69 269.62Z" fill="black"/>
<path opacity="0.1" d="M829.61 512.98C819.294 514.443 808.774 513.096 799.16 509.08L793.91 522.51L793.34 516.29C794.19 511.08 795.86 505.49 799.16 504.08C799.16 504.08 810.69 513.29 829.61 512.98Z" fill="black"/>
<path opacity="0.1" d="M744.2 530.46C744.2 530.46 769.81 535.77 776.99 534.84L744.2 530.46Z" fill="black"/>
<path opacity="0.1" d="M746.86 537.18C746.86 537.18 757.79 536.71 763.25 538.9L746.86 537.18Z" fill="black"/>
<path opacity="0.1" d="M748.11 541.71C753.098 542.764 758.16 543.432 763.25 543.71L748.11 541.71Z" fill="black"/>
<path opacity="0.1" d="M747.48 599.01C747.95 598.69 769.34 593.7 772 597.29L747.48 599.01Z" fill="black"/>
<path opacity="0.1" d="M747.48 605.57C747.48 605.57 766.06 603.39 766.53 605.57C767 607.75 747.48 605.57 747.48 605.57Z" fill="black"/>
<path opacity="0.1" d="M747.48 611.5C747.48 611.5 767.31 607.44 769.65 608.37C771.99 609.3 747.48 611.5 747.48 611.5Z" fill="black"/>
<path opacity="0.1" d="M748.42 751.39L725.94 766.85C725.94 766.85 726.07 765.04 726.29 762.38C731.29 750.07 737.8 743.58 737.8 743.58C742.87 742.27 746.07 743.49 748.06 745.88C748.14 749.21 748.42 751.39 748.42 751.39Z" fill="black"/>
<path d="M750.61 765.29C747.439 772.521 745.84 780.344 745.92 788.24C746.045 794.728 744.399 801.127 741.16 806.75C740.693 807.54 740.165 808.293 739.58 809C739.58 809 723.96 808.88 718.49 804.34C717.891 803.867 717.397 803.275 717.04 802.6C713.91 796.36 723.13 772.47 723.13 772.47C727.97 754.04 737.8 744.21 737.8 744.21C755.29 739.68 750.61 765.29 750.61 765.29Z" fill="#5A5773"/>
<path opacity="0.1" d="M741.16 806.75C740.693 807.54 740.165 808.293 739.58 809C739.58 809 723.96 808.88 718.49 804.34C721.18 795.44 729.77 768.52 733.78 773.09C737.56 777.39 740.19 798.09 741.16 806.75Z" fill="black"/>
<path d="M739 774.77L737.91 815.1H743.15C743.15 815.1 744 779.72 746.34 774.77C748.68 769.82 739 774.77 739 774.77Z" fill="#5A5773"/>
<path opacity="0.1" d="M804.16 778.09C804.16 778.09 781.16 756.39 783.55 754.67C784.18 754.21 784.8 752.36 785.37 749.9C789.78 749.12 797.37 750.97 803.65 768.59C803.8 773.57 804.16 778.09 804.16 778.09Z" fill="black"/>
<path d="M807.59 802.29C807.412 802.357 807.228 802.407 807.04 802.44C804.34 802.92 794.39 802.64 788.82 802.44C787.804 802.392 786.845 801.959 786.137 801.229C785.43 800.499 785.027 799.527 785.01 798.51C785.01 797.01 785.01 795.18 784.89 793.23C784.63 787.07 783.89 779.74 781.68 778.09C777.77 775.09 774.68 764.9 781.68 752.01C781.68 752.01 795.1 741.77 804.78 772.57C804.78 772.57 805.72 781.37 809.94 784.49C814.16 787.61 809.47 801.35 807.59 802.29Z" fill="#5A5773"/>
<path opacity="0.1" d="M807.04 802.44C804.34 802.92 794.39 802.64 788.82 802.44C787.804 802.392 786.845 801.959 786.138 801.229C785.43 800.499 785.027 799.527 785.01 798.51C785.01 797.01 785.01 795.18 784.89 793.23C786.58 785.76 789.01 778.09 792.14 776.34C792.14 776.34 801.61 775.27 807.04 802.44Z" fill="black"/>
<path d="M783.38 775.43L785.89 809H789.09V772.57L783.38 775.43Z" fill="#5A5773"/>
<path opacity="0.1" d="M791.2 192.57C782.129 193.245 773.348 196.066 765.58 200.8C763.58 202.01 761.58 203.47 760.75 205.64C760.03 207.52 760.33 209.64 760.36 211.64C760.63 228.87 741.43 241.9 742.03 259.11C742.27 265.94 745.7 272.3 746.33 279.11C747.38 290.46 740.66 300.92 734.22 310.33C740.854 310.73 747.388 308.564 752.47 304.28C759.281 326.937 760.169 350.962 755.05 374.06H764.26C765.17 374.001 766.083 374.116 766.95 374.4C767.76 374.78 768.485 375.321 769.08 375.99C777.69 384.56 783.46 397.23 780.17 408.93L799.77 401.58C804.46 399.82 809.22 398.03 813.3 395.12C817.38 392.21 820.8 388.02 821.66 383.12C822.19 380.12 822.02 376.54 824.49 374.8C825.704 374.145 827.003 373.66 828.35 373.36C833.73 371.47 836.11 365.25 837.21 359.65C838.549 352.779 838.97 345.761 838.46 338.78C837.59 327.08 834.13 315.2 836.98 303.78C838.59 297.37 842.17 291.39 842.46 284.78C842.93 273.86 834.4 264.47 833.13 253.62C832.24 246.05 834.97 238.41 834.08 230.85C833.586 226.948 832.158 223.223 829.918 219.99C827.677 216.757 824.69 214.113 821.21 212.28C818.8 211.04 816.21 210.2 813.83 208.84C808.4 205.69 804.93 200.01 800 196.11C795.07 192.21 786.86 190.74 783.15 195.82L791.2 192.57Z" fill="black"/>
<path d="M791.2 191.29C782.124 191.98 773.343 194.818 765.58 199.57C763.58 200.78 761.58 202.24 760.75 204.42C760.03 206.3 760.33 208.42 760.36 210.42C760.63 227.64 741.43 240.67 742.03 257.88C742.27 264.71 745.7 271.07 746.33 277.88C747.38 289.24 740.66 299.69 734.22 309.1C740.854 309.5 747.388 307.334 752.47 303.05C759.281 325.707 760.169 349.732 755.05 372.83H764.26C765.17 372.771 766.083 372.886 766.95 373.17C767.76 373.55 768.485 374.091 769.08 374.76C777.69 383.33 783.46 396 780.17 407.7L799.77 400.35C804.46 398.59 809.22 396.8 813.3 393.89C817.38 390.98 820.8 386.79 821.66 381.89C822.19 378.89 822.02 375.31 824.49 373.57C825.703 372.914 827.002 372.433 828.35 372.14C833.73 370.24 836.11 364.02 837.21 358.42C838.549 351.549 838.97 344.531 838.46 337.55C837.59 325.85 834.13 313.97 836.98 302.55C838.59 296.14 842.17 290.16 842.46 283.55C842.93 272.63 834.4 263.24 833.13 252.39C832.24 244.82 834.97 237.18 834.08 229.62C833.586 225.718 832.158 221.993 829.918 218.76C827.677 215.527 824.69 212.883 821.21 211.05C818.8 209.81 816.21 208.98 813.83 207.61C808.4 204.46 804.93 198.78 800 194.88C795.07 190.98 786.86 189.51 783.15 194.59L791.2 191.29Z" fill="#4A4347"/>
<g opacity="0.1">
<path opacity="0.1" d="M760.34 206.2C760.3 206.589 760.28 206.979 760.28 207.37C760.31 206.98 760.33 206.57 760.34 206.2Z" fill="black"/>
<path opacity="0.1" d="M833.06 246.24C833.42 240.94 834.6 235.62 834.16 230.34C833.79 235.64 832.61 240.95 833.06 246.24Z" fill="black"/>
<path opacity="0.1" d="M746.33 272.57C745.75 266.37 742.86 260.57 742.18 254.37C742.045 255.505 741.995 256.648 742.03 257.79C742.27 264.55 745.62 270.85 746.3 277.58C746.465 275.915 746.475 274.237 746.33 272.57V272.57Z" fill="black"/>
<path opacity="0.1" d="M836.98 297.22C836.043 301.289 835.706 305.473 835.98 309.64C836.085 307.21 836.419 304.796 836.98 302.43C838.59 296.02 842.17 290.04 842.46 283.43C842.507 282.254 842.454 281.077 842.3 279.91C841.56 285.86 838.45 291.35 836.98 297.22Z" fill="black"/>
<path opacity="0.1" d="M752.47 297.76C748.303 301.262 743.139 303.362 737.71 303.76C736.57 305.54 735.39 307.29 734.22 309C740.854 309.4 747.388 307.234 752.47 302.95C756.117 315.084 758.075 327.662 758.29 340.33C758.581 325.923 756.617 311.56 752.47 297.76Z" fill="black"/>
<path opacity="0.1" d="M837.21 353.04C836.11 358.64 833.73 364.86 828.35 366.76C827.005 367.062 825.707 367.543 824.49 368.19C822.02 369.94 822.19 373.54 821.67 376.51C820.8 381.45 817.39 385.65 813.3 388.56C809.21 391.47 804.46 393.26 799.77 395.02L781.07 402.02C780.978 403.901 780.676 405.766 780.17 407.58L799.77 400.23C804.46 398.47 809.22 396.68 813.3 393.77C817.38 390.86 820.8 386.67 821.67 381.77C822.19 378.77 822.02 375.19 824.49 373.45C825.703 372.794 827.002 372.313 828.35 372.02C833.73 370.12 836.11 363.9 837.21 358.3C838.349 352.472 838.822 346.534 838.62 340.6C838.484 344.778 838.012 348.938 837.21 353.04V353.04Z" fill="black"/>
<path opacity="0.1" d="M769.08 369.43C768.485 368.761 767.76 368.22 766.95 367.84C766.083 367.556 765.17 367.441 764.26 367.5H756.09C755.77 369.25 755.43 370.99 755.09 372.72H764.3C765.21 372.661 766.123 372.776 766.99 373.06C767.8 373.44 768.525 373.981 769.12 374.65C775.42 380.92 780.2 389.39 781.01 398.07C782.01 387.64 776.69 376.95 769.08 369.43Z" fill="black"/>
</g>
<path opacity="0.1" d="M723.39 403.48C723.39 403.48 730.83 400.36 732.49 403.48C734.15 406.6 723.39 403.48 723.39 403.48Z" fill="black"/>
<path opacity="0.1" d="M725.97 408.83C725.97 408.83 733.41 405.7 735.08 408.83C736.75 411.96 725.97 408.83 725.97 408.83Z" fill="black"/>
<path d="M1002.85 747.48C1002.85 747.48 1008.35 754.67 1000.32 765.48C992.29 776.29 985.67 785.48 988.32 792.25C988.32 792.25 1000.44 772.1 1010.32 771.82C1020.2 771.54 1013.69 759.57 1002.85 747.48Z" fill="#0214BB"/>
<path opacity="0.1" d="M1002.85 747.48C1003.33 748.176 1003.71 748.937 1003.97 749.74C1013.59 761.04 1018.72 771.59 1009.47 771.85C1000.86 772.1 990.53 787.5 988.05 791.39C988.132 791.691 988.228 791.988 988.34 792.28C988.34 792.28 1000.46 772.13 1010.34 771.85C1020.22 771.57 1013.69 759.57 1002.85 747.48Z" fill="black"/>
<path d="M1013.06 756.64C1013.06 759.17 1012.78 761.22 1012.43 761.22C1012.08 761.22 1011.8 759.22 1011.8 756.64C1011.8 754.06 1012.15 755.3 1012.5 755.3C1012.85 755.3 1013.06 754.11 1013.06 756.64Z" fill="#FFD037"/>
<path d="M1016.57 759.66C1014.35 760.87 1012.41 761.6 1012.25 761.29C1012.09 760.98 1013.74 759.75 1015.96 758.54C1018.18 757.33 1017.31 758.22 1017.47 758.54C1017.63 758.86 1018.79 758.45 1016.57 759.66Z" fill="#FFD037"/>
<path d="M973.83 747.48C973.83 747.48 968.34 754.67 976.37 765.48C984.4 776.29 991.02 785.48 988.37 792.25C988.37 792.25 976.26 772.1 966.37 771.82C956.48 771.54 962.99 759.57 973.83 747.48Z" fill="#0214BB"/>
<path opacity="0.1" d="M973.83 747.48C973.355 748.179 972.978 748.939 972.71 749.74C963.09 761.04 957.97 771.59 967.21 771.85C975.83 772.1 986.21 787.5 988.64 791.39C988.56 791.693 988.459 791.99 988.34 792.28C988.34 792.28 976.23 772.13 966.34 771.85C956.45 771.57 962.99 759.57 973.83 747.48Z" fill="black"/>
<path d="M963.62 756.64C963.62 759.17 963.91 761.22 964.26 761.22C964.61 761.22 964.89 759.22 964.89 756.64C964.89 754.06 964.54 755.3 964.19 755.3C963.84 755.3 963.62 754.11 963.62 756.64Z" fill="#FFD037"/>
<path d="M960.12 759.66C962.34 760.87 964.27 761.6 964.44 761.29C964.61 760.98 962.94 759.75 960.72 758.54C958.5 757.33 959.38 758.22 959.21 758.54C959.04 758.86 957.9 758.45 960.12 759.66Z" fill="#FFD037"/>
<path d="M965.37 791.34C965.37 791.34 980.73 790.86 985.37 787.57C990.01 784.28 1009 780.34 1010.14 785.57C1011.28 790.8 1033.23 811.86 1015.89 812C998.55 812.14 975.59 809.3 970.97 806.49C966.35 803.68 965.37 791.34 965.37 791.34Z" fill="#A8A8A8"/>
<path opacity="0.2" d="M1016.19 810.21C998.85 810.35 975.89 807.51 971.27 804.7C967.76 802.55 966.35 794.86 965.88 791.32H965.37C965.37 791.32 966.37 803.7 970.96 806.52C975.55 809.34 998.54 812.17 1015.88 812.03C1020.88 812.03 1022.61 810.21 1022.52 807.57C1021.82 809.19 1019.91 810.18 1016.19 810.21Z" fill="black"/>
<path opacity="0.1" d="M990.64 16.69H118.64V42.88H990.64V16.69Z" fill="#0214BB"/>
<path d="M136.14 35.34C139.205 35.34 141.69 32.8552 141.69 29.79C141.69 26.7248 139.205 24.24 136.14 24.24C133.075 24.24 130.59 26.7248 130.59 29.79C130.59 32.8552 133.075 35.34 136.14 35.34Z" fill="#FEFEFE"/>
<path d="M153.14 35.34C156.205 35.34 158.69 32.8552 158.69 29.79C158.69 26.7248 156.205 24.24 153.14 24.24C150.075 24.24 147.59 26.7248 147.59 29.79C147.59 32.8552 150.075 35.34 153.14 35.34Z" fill="#FEFEFE"/>
<path d="M170.14 35.34C173.205 35.34 175.69 32.8552 175.69 29.79C175.69 26.7248 173.205 24.24 170.14 24.24C167.075 24.24 164.59 26.7248 164.59 29.79C164.59 32.8552 167.075 35.34 170.14 35.34Z" fill="#FEFEFE"/>
<path d="M459.13 778.81C459.13 778.81 416.85 776.26 421.83 805.88C421.83 805.88 420.83 811.12 425.59 813.5C425.59 813.5 425.67 811.3 429.93 812.05C431.446 812.301 432.987 812.375 434.52 812.27C436.595 812.125 438.567 811.311 440.14 809.95V809.95C440.14 809.95 452.02 805.04 456.64 785.62C456.64 785.62 460.06 781.38 459.92 780.29L452.79 783.29C452.79 783.29 455.23 788.43 453.31 792.71C453.31 792.71 453.08 783.47 451.71 783.71C451.43 783.76 448 785.49 448 785.49C448 785.49 452.2 794.49 449 800.98C449 800.98 450.2 789.93 446.66 786.14L441.66 789.07C441.66 789.07 446.56 798.34 443.24 805.89C443.24 805.89 444.09 794.3 440.6 789.79L436.05 793.34C436.05 793.34 440.66 802.47 437.85 808.73C437.85 808.73 437.48 795.24 435.07 794.22C435.07 794.22 431.07 797.73 430.48 799.22C430.48 799.22 433.63 805.84 431.68 809.34C431.68 809.34 430.48 800.34 429.49 800.34C429.49 800.34 425.49 806.29 425.11 810.34C425.11 810.34 425.28 804.27 428.53 799.74C426.242 800.168 424.131 801.26 422.46 802.88C422.46 802.88 423.07 798.67 429.51 798.3C429.51 798.3 432.79 793.79 433.66 793.51C433.66 793.51 427.26 792.98 423.38 794.7C423.38 794.7 426.8 790.7 434.84 792.53L439.33 788.86C439.33 788.86 430.9 787.71 427.33 788.98C427.33 788.98 431.44 785.47 440.54 788.03L445.43 785.1C445.43 785.1 438.25 783.56 433.97 784.1C433.97 784.1 438.48 781.67 446.87 784.31L450.36 782.74C450.36 782.74 445.1 781.74 443.56 781.54C442.02 781.34 441.94 780.95 441.94 780.95C445.272 780.394 448.692 780.775 451.82 782.05C451.82 782.05 459.26 779.28 459.13 778.81Z" fill="#0214BB"/>
<path opacity="0.1" d="M430 821.14C446.524 821.14 459.92 818.875 459.92 816.08C459.92 813.285 446.524 811.02 430 811.02C413.476 811.02 400.08 813.285 400.08 816.08C400.08 818.875 413.476 821.14 430 821.14Z" fill="#0214BB"/>
<path d="M385.06 780.39C385.06 780.39 361.22 778.95 364.06 795.65C363.915 796.497 364.042 797.369 364.423 798.139C364.804 798.91 365.419 799.54 366.18 799.94C366.18 799.94 366.18 798.71 368.62 799.13C369.476 799.271 370.345 799.311 371.21 799.25C372.382 799.174 373.496 798.713 374.38 797.94V797.94C374.38 797.94 381.08 795.18 383.68 784.23C383.68 784.23 385.61 781.84 385.53 781.23L381.53 782.95C381.53 782.95 382.91 785.85 381.83 788.26C381.83 788.26 381.7 783.06 380.92 783.18C380.77 783.18 378.83 784.18 378.83 784.18C378.83 784.18 381.2 789.24 379.41 792.91C379.41 792.91 380.09 786.69 378.09 784.55L375.26 786.2C375.26 786.2 378.03 791.42 376.15 795.68C376.15 795.68 376.63 789.15 374.67 786.61L372.1 788.61C372.1 788.61 374.7 793.75 373.1 797.29C373.1 797.29 372.9 789.68 371.54 789.1C370.564 789.923 369.694 790.863 368.95 791.9C368.95 791.9 370.73 795.63 369.62 797.6C369.62 797.6 368.95 792.54 368.39 792.51C368.39 792.51 366.16 795.87 365.92 798.17C366.029 796.036 366.694 793.967 367.85 792.17C366.562 792.414 365.373 793.029 364.43 793.94C364.43 793.94 364.77 791.57 368.43 791.36C368.43 791.36 370.28 788.82 370.78 788.66C370.78 788.66 367.17 788.36 364.98 789.33C364.98 789.33 366.9 787.09 371.44 788.11L373.97 786.04C373.97 786.04 369.22 785.39 367.2 786.11C367.2 786.11 369.52 784.11 374.65 785.57L377.41 783.92C375.29 783.456 373.118 783.267 370.95 783.36C370.95 783.36 373.49 781.99 378.22 783.48L380.22 782.59C380.22 782.59 377.22 782.01 376.38 781.92C375.54 781.83 375.47 781.59 375.47 781.59C377.348 781.277 379.277 781.491 381.04 782.21C381.04 782.21 385.13 780.65 385.06 780.39Z" fill="#0214BB"/>
<path opacity="0.1" d="M368.63 804.25C377.947 804.25 385.5 802.974 385.5 801.4C385.5 799.826 377.947 798.55 368.63 798.55C359.313 798.55 351.76 799.826 351.76 801.4C351.76 802.974 359.313 804.25 368.63 804.25Z" fill="#0214BB"/>
<path d="M430.43 744.98C430.43 744.98 401.65 743.24 405.05 763.41C404.873 764.432 405.025 765.484 405.483 766.414C405.941 767.345 406.682 768.107 407.6 768.59C407.6 768.59 407.6 767.09 410.55 767.59C411.584 767.765 412.634 767.815 413.68 767.74C415.092 767.646 416.434 767.091 417.5 766.16V766.16C417.5 766.16 425.59 762.82 428.74 749.6C428.74 749.6 431.07 746.72 430.97 745.97L426.12 748.05C426.12 748.05 427.78 751.55 426.47 754.46C426.47 754.46 426.31 748.18 425.38 748.32C425.19 748.32 422.86 749.54 422.86 749.54C422.86 749.54 425.71 755.64 423.56 760.08C423.56 760.08 424.38 752.56 421.97 749.98L418.55 751.98C418.55 751.98 421.88 758.29 419.62 763.43C419.62 763.43 420.2 755.54 417.83 752.43L414.73 754.85C414.73 754.85 417.87 761.06 415.95 765.33C415.95 765.33 415.7 756.14 414.06 755.45C414.06 755.45 411.35 757.84 410.94 758.82C410.94 758.82 413.08 763.33 411.75 765.71C411.75 765.71 410.93 759.59 410.26 759.56C410.26 759.56 407.57 763.62 407.26 766.39C407.395 763.822 408.198 761.333 409.59 759.17C408.033 759.467 406.597 760.215 405.46 761.32C405.46 761.32 405.88 758.45 410.26 758.2C410.26 758.2 412.49 755.12 413.09 754.94C413.09 754.94 408.73 754.57 406.09 755.74C406.09 755.74 408.41 753.04 413.88 754.27L416.94 751.77C416.94 751.77 411.21 750.99 408.77 751.85C408.77 751.85 411.57 749.46 417.77 751.21L421.1 749.21C421.1 749.21 416.21 748.21 413.29 748.54C413.29 748.54 416.37 746.88 422.07 748.68L424.45 747.61C424.45 747.61 420.87 746.91 419.82 746.8C418.77 746.69 418.72 746.4 418.72 746.4C420.988 746.015 423.319 746.272 425.45 747.14C425.45 747.14 430.52 745.29 430.43 744.98Z" fill="#0214BB"/>
<path opacity="0.1" d="M410.61 773.78C421.86 773.78 430.98 772.24 430.98 770.34C430.98 768.44 421.86 766.9 410.61 766.9C399.36 766.9 390.24 768.44 390.24 770.34C390.24 772.24 399.36 773.78 410.61 773.78Z" fill="#0214BB"/>
<path opacity="0.1" d="M620.55 776.82C637.074 776.82 650.47 774.555 650.47 771.76C650.47 768.965 637.074 766.7 620.55 766.7C604.026 766.7 590.63 768.965 590.63 771.76C590.63 774.555 604.026 776.82 620.55 776.82Z" fill="#0214BB"/>
<path d="M600.45 748.25C600.45 748.25 617.52 747.73 622.67 744.07C627.82 740.41 648.92 736.07 650.2 741.9C651.48 747.73 675.85 771.12 656.58 771.28C637.31 771.44 611.8 768.28 606.67 765.15C601.54 762.02 600.45 748.25 600.45 748.25Z" fill="#A8A8A8"/>
<path opacity="0.2" d="M656.92 769.23C637.65 769.39 612.15 766.23 607.01 763.1C603.1 760.72 601.55 752.18 601.01 748.23H600.44C600.44 748.23 601.53 762 606.66 765.13C611.79 768.26 637.3 771.41 656.57 771.26C662.13 771.21 664.05 769.26 663.95 766.26C663.18 768.09 661.06 769.2 656.92 769.23Z" fill="black"/>
</g>
<defs>
<clipPath id="clip0">
<rect width="1081.37" height="821.13" fill="white"/>
</clipPath>
</defs>
</svg>
