<?xml version="1.0" encoding="UTF-8"?>
<svg width="112px" height="112px" viewBox="0 0 112 112" version="1.1" xmlns="http://www.w3.org/2000/svg" xmlns:xlink="http://www.w3.org/1999/xlink">
    <!-- Generator: Sketch 52.6 (67491) - http://www.bohemiancoding.com/sketch -->
    <title>Group</title>
    <desc>Created with Sketch.</desc>
    <g id="Page-1" stroke="none" stroke-width="1" fill="none" fill-rule="evenodd">
        <g id="CC-AFFICHERECAP-TRAME" transform="translate(-77.000000, -291.000000)">
            <g id="Group" transform="translate(77.000000, 291.000000)">
                <path d="M111.253,55.522 C111.253,86.179 86.401,111.031 55.744,111.031 C25.087,111.031 0.235,86.179 0.235,55.522 C0.235,24.865 25.087,0.012 55.744,0.012 C86.401,0.012 111.253,24.865 111.253,55.522" id="Fill-13" fill="#1D1F1F"></path>
                <path d="M64.573,40.027 L67.866,43.32 L68.113,42.99 L64.861,39.739 C64.738,39.821 64.655,39.903 64.573,40.027 Z M70.747,40.726 L67.948,37.969 C67.825,38.01 67.66,38.051 67.537,38.134 L70.376,40.973 L70.747,40.726 Z M73.052,39.821 L70.706,37.475 C70.541,37.475 70.335,37.516 70.17,37.516 L72.558,39.945 L73.052,39.821 Z M69.759,41.344 L66.795,38.422 C66.672,38.463 66.548,38.545 66.425,38.627 L69.43,41.632 L69.759,41.344 Z M71.817,40.233 L69.265,37.639 L68.771,37.763 L71.405,40.397 C71.529,40.315 71.693,40.274 71.817,40.233 Z M60.386,80.911 L59.712,80.911 L59.712,80.037 L59.23,80.037 L59.23,82.277 L59.712,82.277 L59.712,81.393 L60.386,81.393 L60.386,82.277 L60.868,82.277 L60.868,80.037 L60.386,80.037 L60.386,80.911 Z M74.369,39.533 L72.435,37.557 C72.188,37.557 71.981,37.516 71.776,37.516 L73.875,39.615 C74.04,39.574 74.204,39.533 74.369,39.533 Z M59.004,89.011 L59.486,89.011 L59.486,86.773 L59.004,86.773 L59.004,89.011 Z M75.892,39.409 L74.575,38.092 L73.71,37.845 L75.315,39.45 C75.48,39.409 75.686,39.409 75.892,39.409 Z M50.618,80.924 L50.579,80.908 C50.478,80.869 50.331,80.803 50.331,80.681 C50.331,80.588 50.406,80.504 50.493,80.504 C50.541,80.504 50.609,80.532 50.666,80.639 L51.097,80.432 C51.007,80.16 50.741,80.019 50.517,80.019 C50.109,80.019 49.849,80.289 49.849,80.699 C49.849,81.025 50.091,81.261 50.396,81.358 C50.555,81.414 50.675,81.448 50.675,81.633 C50.675,81.732 50.6,81.819 50.496,81.819 C50.361,81.819 50.283,81.726 50.226,81.621 L49.837,81.788 C49.867,81.885 49.912,81.971 49.969,82.046 C50.067,82.178 50.223,82.301 50.486,82.301 L50.51,82.301 C50.873,82.301 51.157,82.004 51.157,81.633 C51.157,81.264 50.986,81.082 50.618,80.924 Z M52.574,88.153 L52.787,87.626 L52.991,88.153 L52.574,88.153 Z M52.604,86.773 L51.712,89.011 L52.23,89.011 L52.398,88.608 L53.17,88.608 L53.347,89.011 L53.862,89.011 L52.967,86.773 L52.604,86.773 Z M49.722,87.674 L49.503,87.674 L49.503,87.255 L49.722,87.255 C49.862,87.255 49.904,87.383 49.904,87.458 C49.904,87.539 49.862,87.674 49.722,87.674 Z M49.722,86.773 L49.021,86.773 L49.021,89.011 L49.503,89.011 L49.503,88.158 L49.722,88.158 C50.114,88.158 50.386,87.844 50.386,87.458 C50.386,87.069 50.114,86.773 49.722,86.773 Z M68.895,42.126 L65.767,38.998 L65.438,39.245 L68.606,42.414 C68.689,42.332 68.771,42.208 68.895,42.126 Z M62.132,87.658 L62.093,87.644 C61.992,87.605 61.845,87.539 61.845,87.416 C61.845,87.324 61.92,87.24 62.006,87.24 C62.055,87.24 62.124,87.266 62.18,87.374 L62.611,87.168 C62.521,86.895 62.255,86.755 62.031,86.755 C61.624,86.755 61.363,87.024 61.363,87.434 C61.363,87.761 61.605,87.997 61.911,88.093 C62.069,88.15 62.189,88.182 62.189,88.368 C62.189,88.467 62.114,88.553 62.01,88.553 C61.875,88.553 61.797,88.461 61.74,88.356 L61.351,88.524 C61.381,88.619 61.426,88.706 61.483,88.781 C61.582,88.913 61.737,89.035 62,89.035 L62.024,89.035 C62.387,89.035 62.671,88.739 62.671,88.368 C62.671,88 62.5,87.817 62.132,87.658 Z M56.391,87.695 L56.143,87.695 L56.143,87.255 L56.391,87.255 C56.535,87.255 56.598,87.371 56.598,87.473 C56.598,87.581 56.535,87.695 56.391,87.695 Z M57.083,87.473 C57.083,87.084 56.792,86.773 56.391,86.773 L55.658,86.773 L55.658,89.011 L56.143,89.011 L56.143,88.137 L56.202,88.137 L56.706,89.011 L57.256,89.011 L56.723,88.084 C56.969,87.955 57.083,87.751 57.083,87.473 Z M56.65,80.495 C56.803,80.498 56.958,80.558 57.09,80.663 L57.383,80.283 C57.341,80.241 57.081,80.013 56.647,80.013 C56.012,80.013 55.503,80.522 55.503,81.157 C55.503,81.792 56.012,82.301 56.647,82.301 C57.078,82.301 57.344,82.07 57.383,82.031 L57.09,81.648 C56.961,81.753 56.803,81.816 56.65,81.816 C56.27,81.812 55.985,81.516 55.985,81.157 C55.985,80.789 56.275,80.511 56.65,80.495 Z M76.921,39.45 L77.167,39.45 L76.55,39.08 L76.921,39.45 Z M76.962,33.4 C78.279,33.894 79.349,34.717 80.996,35.993 L78.485,39.368 L80.584,37.722 L83.012,34.347 C80.09,29.778 75.727,28.008 71.117,28.008 C66.754,28.008 62.227,29.614 58.563,31.918 C60.704,30.56 63.832,29.86 66.59,29.86 C71.241,29.86 73.175,31.219 76.962,33.4 Z M79.72,40.027 L79.308,39.615 L79.185,39.821 L79.72,40.027 Z M80.717,81.052 L80.717,81.507 L81.21,81.507 L81.21,81.654 C81.145,81.747 80.989,81.816 80.783,81.816 C80.423,81.816 80.124,81.516 80.124,81.157 C80.124,80.792 80.423,80.495 80.783,80.495 C80.938,80.495 81.097,80.558 81.226,80.663 L81.522,80.283 C81.474,80.241 81.22,80.013 80.783,80.013 C80.148,80.013 79.639,80.522 79.639,81.157 C79.639,81.792 80.148,82.301 80.783,82.301 C81.31,82.301 81.582,82.028 81.71,81.812 L81.708,81.052 L80.717,81.052 Z M78.732,60.648 L81.572,63.488 L81.983,63.282 L79.102,60.401 L78.732,60.648 Z M79.72,60.03 L82.683,62.952 C82.848,62.911 82.971,62.829 83.095,62.747 L80.09,59.783 L79.72,60.03 Z M45.722,60.648 L48.562,63.488 L48.974,63.282 L46.092,60.401 L45.722,60.648 Z M76.509,61.636 L79.102,64.228 L79.596,64.105 L76.962,61.471 C76.797,61.512 76.633,61.553 76.509,61.636 Z M80.831,63.735 L78.073,60.977 L77.662,61.183 L80.378,63.899 C80.543,63.858 80.708,63.817 80.831,63.735 Z M84.124,62.171 L81.037,59.125 L80.708,59.372 L83.753,62.376 L84.124,62.171 Z M85.688,60.565 L82.208,57.086 L84,55.626 L79.884,50.276 C76.591,52.416 73.751,53.321 71.405,53.321 C68.632,53.321 66.525,52.103 65.138,50.264 L66.055,51.181 C66.014,50.975 66.014,50.769 66.014,50.564 L64.239,48.789 C63.983,48.262 63.772,47.706 63.609,47.13 L66.014,49.534 C66.014,49.329 66.014,49.164 66.055,48.958 L63.411,46.315 C63.334,45.934 63.276,45.546 63.238,45.154 L66.137,48.053 C66.137,47.847 66.178,47.682 66.219,47.518 L63.229,44.559 C63.245,44.237 63.271,43.921 63.309,43.612 L66.384,46.654 L66.507,46.2 L63.384,43.077 C63.432,42.783 63.488,42.495 63.554,42.215 L66.795,45.419 L66.919,45.007 L63.671,41.759 C63.746,41.492 63.83,41.232 63.921,40.979 L67.29,44.307 C67.331,44.184 67.372,44.06 67.454,43.937 L64.082,40.564 C64.453,39.663 64.936,38.862 65.52,38.175 C62.35,40.233 61.198,43.361 61.198,47.106 C61.198,53.321 64.696,57.437 71.117,57.437 C73.463,57.437 76.057,56.696 78.608,54.679 L81.119,57.972 L81.89,57.344 L85.646,61.1 L85.935,60.853 L85.688,60.565 Z M81.613,58.672 L84.741,61.759 L85.07,61.512 L81.942,58.384 L81.613,58.672 Z M83.59,82.277 L84.851,82.277 L84.851,81.795 L84.072,81.795 L84.072,81.393 L84.851,81.393 L84.851,80.911 L84.072,80.911 L84.072,80.519 L84.851,80.519 L84.851,80.037 L83.59,80.037 L83.59,82.277 Z M67.578,62.417 L68.03,62.829 C68.401,63.035 68.771,63.24 69.183,63.406 L68.277,62.5 C68.071,62.5 67.825,62.459 67.578,62.417 Z M69.389,62.623 L70.706,63.94 L71.529,64.146 L70.047,62.664 C69.841,62.664 69.594,62.623 69.389,62.623 Z M75.274,62.047 L77.703,64.475 C77.867,64.434 78.032,64.393 78.238,64.393 L75.727,61.883 L75.274,62.047 Z M73.504,64.475 L71.652,62.623 C71.447,62.664 71.282,62.664 71.076,62.664 L72.805,64.393 C73.052,64.434 73.257,64.475 73.504,64.475 Z M67.076,80.034 L66.594,80.034 L66.594,82.277 L67.803,82.277 L67.803,81.795 L67.076,81.795 L67.076,80.034 Z M63.511,81.417 L63.723,80.89 L63.927,81.417 L63.511,81.417 Z M63.541,80.037 L62.648,82.277 L63.167,82.277 L63.334,81.872 L64.106,81.872 L64.283,82.277 L64.798,82.277 L63.903,80.037 L63.541,80.037 Z M77.269,81.33 L76.37,80.037 L75.927,80.037 L75.927,82.277 L76.385,82.277 L76.385,80.98 L77.286,82.277 L77.727,82.277 L77.727,80.04 L77.269,80.04 L77.269,81.33 Z M72.76,82.277 L74.021,82.277 L74.021,81.795 L73.242,81.795 L73.242,81.393 L74.021,81.393 L74.021,80.911 L73.242,80.911 L73.242,80.519 L74.021,80.519 L74.021,80.037 L72.76,80.037 L72.76,82.277 Z M72.599,62.541 L74.616,64.558 C74.822,64.599 75.027,64.599 75.233,64.599 L73.134,62.5 C72.969,62.5 72.764,62.541 72.599,62.541 Z M76.797,64.558 L74.492,62.253 L73.957,62.335 L76.221,64.599 C76.427,64.599 76.591,64.558 76.797,64.558 Z M70.159,80.034 L69.677,80.034 L69.677,82.277 L70.886,82.277 L70.886,81.795 L70.159,81.795 L70.159,80.034 Z M34.527,38.134 L37.367,40.973 L37.737,40.726 L34.938,37.969 C34.815,38.01 34.65,38.051 34.527,38.134 Z M33.416,38.627 L36.42,41.632 L36.749,41.344 L33.786,38.422 C33.662,38.463 33.539,38.545 33.416,38.627 Z M37.161,37.516 L39.548,39.945 L40.042,39.821 L37.696,37.475 C37.531,37.475 37.326,37.516 37.161,37.516 Z M35.761,37.763 L38.396,40.397 C38.519,40.315 38.684,40.274 38.807,40.233 L36.255,37.639 L35.761,37.763 Z M43.541,39.08 L43.911,39.45 L44.158,39.45 L43.541,39.08 Z M46.175,39.821 L46.71,40.027 L46.298,39.615 L46.175,39.821 Z M31.563,40.027 L34.856,43.32 L35.103,42.99 L31.851,39.739 C31.728,39.821 31.646,39.903 31.563,40.027 Z M42.882,39.409 L41.565,38.092 L40.701,37.845 L42.306,39.45 C42.47,39.409 42.676,39.409 42.882,39.409 Z M32.428,39.245 L35.597,42.414 C35.679,42.332 35.761,42.208 35.885,42.126 L32.757,38.998 L32.428,39.245 Z M38.766,37.516 L40.865,39.615 C41.03,39.574 41.194,39.533 41.359,39.533 L39.425,37.557 C39.178,37.557 38.972,37.516 38.766,37.516 Z M84.782,40.233 L81.366,36.816 L81.119,37.146 L84.535,40.562 L84.782,40.233 Z M79.761,39.039 L81.983,41.261 L83.424,42.085 L80.008,38.669 L79.761,39.039 Z M84.083,41.179 L80.666,37.763 L80.419,38.092 L83.835,41.509 L84.083,41.179 Z M85.194,39.657 L85.482,39.286 L83.3,37.146 L83.136,37.022 L83.136,37.063 L82.024,36.446 L85.194,39.657 Z M46.71,60.03 L49.673,62.952 C49.838,62.911 49.961,62.829 50.085,62.747 L47.08,59.783 L46.71,60.03 Z M50.99,55.626 L46.875,50.276 C43.582,52.416 40.742,53.321 38.396,53.321 C35.623,53.321 33.515,52.103 32.128,50.264 L33.045,51.181 C33.004,50.975 33.004,50.769 33.004,50.564 L31.229,48.789 C30.973,48.262 30.763,47.706 30.599,47.13 L33.004,49.534 C33.004,49.329 33.004,49.164 33.045,48.958 L30.401,46.315 C30.324,45.934 30.267,45.546 30.229,45.154 L33.127,48.053 C33.127,47.847 33.168,47.682 33.209,47.518 L30.219,44.559 C30.235,44.237 30.262,43.921 30.299,43.612 L33.374,46.654 L33.498,46.2 L30.374,43.077 C30.422,42.783 30.478,42.495 30.544,42.215 L33.786,45.419 L33.909,45.007 L30.662,41.759 C30.736,41.492 30.82,41.232 30.911,40.979 L34.28,44.307 C34.321,44.184 34.362,44.06 34.444,43.937 L31.072,40.564 C31.443,39.663 31.926,38.862 32.51,38.175 C29.34,40.233 28.188,43.361 28.188,47.106 C28.188,53.321 31.687,57.437 38.107,57.437 C40.454,57.437 43.047,56.696 45.599,54.679 L48.109,57.972 L48.88,57.344 L52.637,61.1 L52.925,60.853 L52.678,60.565 L49.198,57.086 L50.99,55.626 Z M52.061,61.512 L48.933,58.384 L48.603,58.672 L51.731,61.759 L52.061,61.512 Z M47.368,63.899 C47.533,63.858 47.698,63.817 47.821,63.735 L45.063,60.977 L44.652,61.183 L47.368,63.899 Z M51.114,62.171 L48.027,59.125 L47.698,59.372 L50.744,62.376 L51.114,62.171 Z M47.41,38.092 L50.826,41.509 L51.073,41.179 L47.656,37.763 L47.41,38.092 Z M27.973,80.495 C28.126,80.498 28.282,80.558 28.414,80.663 L28.707,80.283 C28.665,80.241 28.404,80.013 27.97,80.013 C27.335,80.013 26.827,80.522 26.827,81.157 C26.827,81.792 27.335,82.301 27.97,82.301 C28.401,82.301 28.668,82.07 28.707,82.031 L28.414,81.648 C28.285,81.753 28.126,81.816 27.973,81.816 C27.593,81.812 27.309,81.516 27.309,81.157 C27.309,80.789 27.599,80.511 27.973,80.495 Z M41.342,80.924 L41.303,80.908 C41.201,80.869 41.054,80.803 41.054,80.681 C41.054,80.588 41.129,80.504 41.216,80.504 C41.264,80.504 41.333,80.532 41.39,80.639 L41.821,80.432 C41.731,80.16 41.464,80.019 41.24,80.019 C40.833,80.019 40.572,80.289 40.572,80.699 C40.572,81.025 40.815,81.261 41.12,81.358 C41.279,81.414 41.398,81.448 41.398,81.633 C41.398,81.732 41.324,81.819 41.219,81.819 C41.084,81.819 41.006,81.726 40.95,81.621 L40.561,81.788 C40.59,81.885 40.635,81.971 40.692,82.046 C40.791,82.178 40.947,82.301 41.21,82.301 L41.234,82.301 C41.596,82.301 41.88,82.004 41.88,81.633 C41.88,81.264 41.71,81.082 41.342,80.924 Z M38.066,62.664 L39.795,64.393 C40.042,64.434 40.248,64.475 40.495,64.475 L38.643,62.623 C38.437,62.664 38.272,62.664 38.066,62.664 Z M38.142,80.924 L38.103,80.908 C38.001,80.869 37.854,80.803 37.854,80.681 C37.854,80.588 37.929,80.504 38.016,80.504 C38.064,80.504 38.133,80.532 38.19,80.639 L38.621,80.432 C38.531,80.16 38.265,80.019 38.04,80.019 C37.633,80.019 37.373,80.289 37.373,80.699 C37.373,81.025 37.615,81.261 37.92,81.358 C38.079,81.414 38.199,81.448 38.199,81.633 C38.199,81.732 38.124,81.819 38.019,81.819 C37.884,81.819 37.807,81.726 37.75,81.621 L37.36,81.788 C37.391,81.885 37.436,81.971 37.492,82.046 C37.591,82.178 37.747,82.301 38.01,82.301 L38.034,82.301 C38.396,82.301 38.681,82.004 38.681,81.633 C38.681,81.264 38.51,81.082 38.142,80.924 Z M38.519,64.146 L37.038,62.664 C36.832,62.664 36.584,62.623 36.379,62.623 L37.696,63.94 L38.519,64.146 Z M39.589,62.541 L41.606,64.558 C41.812,64.599 42.018,64.599 42.224,64.599 L40.125,62.5 C39.959,62.5 39.754,62.541 39.589,62.541 Z M43.77,82.277 L44.251,82.277 L44.251,80.037 L43.77,80.037 L43.77,82.277 Z M34.568,62.417 L35.021,62.829 C35.391,63.035 35.761,63.24 36.173,63.406 L35.268,62.5 C35.062,62.5 34.815,62.459 34.568,62.417 Z M43.952,61.471 C43.788,61.512 43.623,61.553 43.5,61.636 L46.092,64.228 L46.586,64.105 L43.952,61.471 Z M41.482,62.253 L40.948,62.335 L43.211,64.599 C43.417,64.599 43.582,64.558 43.788,64.558 L41.482,62.253 Z M42.265,62.047 L44.693,64.475 C44.857,64.434 45.022,64.393 45.228,64.393 L42.717,61.883 L42.265,62.047 Z M43.952,33.4 C45.269,33.894 46.339,34.717 47.986,35.993 L45.475,39.368 L47.574,37.722 L50.002,34.347 C47.08,29.778 42.717,28.008 38.107,28.008 C33.745,28.008 29.217,29.614 25.554,31.918 C27.694,30.56 30.822,29.86 33.58,29.86 C38.231,29.86 40.166,31.219 43.952,33.4 Z M52.184,39.657 L52.472,39.286 L50.291,37.146 L50.126,37.022 L50.126,37.063 L49.015,36.446 L52.184,39.657 Z M47.274,80.495 C47.427,80.498 47.583,80.558 47.715,80.663 L48.008,80.283 C47.966,80.241 47.706,80.013 47.271,80.013 C46.637,80.013 46.128,80.522 46.128,81.157 C46.128,81.792 46.637,82.301 47.271,82.301 C47.703,82.301 47.969,82.07 48.008,82.031 L47.715,81.648 C47.586,81.753 47.427,81.816 47.274,81.816 C46.895,81.812 46.61,81.516 46.61,81.157 C46.61,80.789 46.9,80.511 47.274,80.495 Z M46.751,39.039 L48.974,41.261 L50.414,42.085 L46.998,38.669 L46.751,39.039 Z M51.772,40.233 L48.356,36.816 L48.109,37.146 L51.525,40.562 L51.772,40.233 Z M31.033,80.034 L30.551,80.034 L30.551,82.277 L31.76,82.277 L31.76,81.795 L31.033,81.795 L31.033,80.034 Z M34.382,81.417 L34.595,80.89 L34.798,81.417 L34.382,81.417 Z M34.412,80.037 L33.52,82.277 L34.038,82.277 L34.206,81.872 L34.978,81.872 L35.154,82.277 L35.669,82.277 L34.774,80.037 L34.412,80.037 Z" id="Fill-14" fill="#E9CE3B"></path>
            </g>
        </g>
    </g>
</svg>