<svg xmlns:xlink="http://www.w3.org/1999/xlink" xmlns="http://www.w3.org/2000/svg" version="1.1" fill="none" stroke="none" stroke-linecap="square" stroke-miterlimit="10" width="960" height="540" style=""><rect id="backgroundrect" width="100%" height="100%" x="0" y="0" fill="none" stroke="none"/><clipPath id="g5fda17a5d8_2_0.0"><path d="m0 0l960.0 0l0 540.0l-960.0 0l0 -540.0z" clip-rule="nonzero" id="svg_1"/></clipPath><g class="currentLayer" style=""><title>Layer 1</title><path fill="#ffffff" d="m-1.0526314973831177,111.57892747559296 l960,0 l0,312.63160962655155 l-960,0 z" fill-rule="evenodd" id="svg_3" class="" opacity="1"/><path fill="#000000" fill-opacity="0.0" d="m485.59317,413.04961526458743 c29.855865,0 62.922577,-31.10315 74.00247,-69.0329 c17.306763,-59.246048 18.667114,-154.80142 63.91089,-170.26787 c65.77118,-22.48368 47.882507,211.91847 114.36145,230.09306 c38.292908,10.468842 50.57794,-81.50342 74.00244,-124.24925 c24.061890000000002,-43.908844 71.76935,-49.046616 107.63135,-73.631775 " fill-rule="evenodd" id="svg_4" class=""/><path stroke="#021dbb" stroke-width="8.0" stroke-linejoin="round" stroke-linecap="butt" stroke-dasharray="32.0,24.0" d="m485.59317,413.04961526458743 c29.855865,0 62.922577,-31.10315 74.00247,-69.0329 c17.306763,-59.246048 18.667114,-154.80142 63.91089,-170.26787 c65.77118,-22.48368 47.882507,211.91847 114.36145,230.09306 c38.292908,10.468842 50.57794,-81.50342 74.00244,-124.24925 c24.061890000000002,-43.908844 71.76935,-49.046616 107.63135,-73.631775 " fill-rule="evenodd" id="svg_5" class=""/><path fill="#ffffff" d="m473.3491,237.5839152645874 l263.874,0 l0,88.409454 l-263.874,0 z" fill-rule="evenodd" id="svg_6" class="" opacity="1"/><path fill="#000000" fill-opacity="0.0" d="m119.29508747722628,157.84418106803895 l694.4252,0 l0,209.57481 l-694.4252,0 z" fill-rule="evenodd" id="svg_7" class=""/><path fill="#000000" d="m140.86743,205.2862752645874 l47.03125,0 q24.15625,0 36,6.96875 q11.84375,6.953125 11.84375,24.875 q0,19.84375 -14.40625,27.359375 q-13.4375,6.875 -37.59375,6.875 l-1.28125,0 l0,42.875 l20,0 l0,3.046875 l-61.59375,0 l0,-3.046875 l10.390625,0 l0,-105.90625 l-10.390625,0 l0,-3.046875 zm41.59375,3.046875 l0,60 l3.359375,0 q9.59375,0 13.265625,-6.5625 q3.6875,-6.5625 3.6875,-21.28125 l0,-7.6875 q0,-13.59375 -3.4375,-19.03125 q-3.4375,-5.4375 -12.5625,-5.4375 l-4.3125,0 zm105.921295,77.4375 l0,-13.609375 q0,-15.515625 -1.6875,-22.625 q-1.671875000000003,-7.125 -7.75,-7.125 q-3.53125,0 -5.6875,2 q-2.15625,2 -3.109375,6.640625 q-1.453125,7.1875 -1.453125,21.921875 l0,12.46875 q0,17.4375 1.046875,20.96875 q1.046875,3.515625 2.15625,5.75 q1.765625000000003,3.84375 6.890625,3.84375 q6.234375,0 8.15625,-7.203125 q1.4375,-5.109375 1.4375,-23.03125 zm-9.921875,33.109375 q-20,0 -30.25,-10.234375 q-10.234375,-10.234375 -10.234375,-29.359375 q0,-19.125 10.953125,-29.4375 q10.96875,-10.328125 30.8125,-10.328125 q19.84375,0 29.59375,9.53125 q9.765625,9.515625 9.765625,29.03125 q0,40.796875 -40.640625,40.796875 zm48.80194,0 l0,-28.640625 l1.921875,0 q4.15625,13.921875 11.1875,19.53125 q7.046875,5.59375 17.609375,5.59375 q16.3125,0 16.3125,-10.390625 q0,-4.484375 -4,-6.734375 q-6.234375,-3.515625 -16,-5.4375 q-10.875,-2.875 -18.234375,-7.671875 q-8.796875,-5.765625 -8.796875,-18.234375 q0,-12.484375 7.671875,-19.921875 q7.6875,-7.453125 20.484375,-7.453125 q7.84375,0 16.15625,3.6875 q3.046875,1.28125 4.640625,1.28125 q1.609375,0 2.71875,-1.125 q1.125,-1.125 2.734375,-4.15625 l1.75,0 l0,24.484375 l-1.921875,0 q-8.15625,-20.8125 -25.28125,-20.8125 q-7.515625,0 -11.203125,2.640625 q-3.671875,2.640625 -3.671875,6.640625 q0,2.40625 1.109375,3.765625 q1.125,1.359375 1.765625000000003,2 q0.6406250000000107,0.6406250000000107 2.078125,1.359375 q1.453125,0.7187500000000053 2.40625,1.125 q0.9687500000000053,0.39062500000000266 2.96875,1.03125 q2,0.6406250000000107 2.953125,0.7968750000000053 q10.875,2.734375 15.671875,4.734375 q4.8125,2 9.125,4.875 q8.796875,6.078125 8.796875,19.609375 q0,13.515625 -8,20.46875 q-8,6.953125 -21.921875,6.953125 q-9.90625,0 -19.1875,-4.640625 q-1.921875,-1.265625 -3.046875,-1.265625 q-3.515625,0 -6.875,5.90625 l-1.921875,0 zm72.15253,-24.46875 l0,-50.40625 l-8.796875,0 l0,-2.875 l8.796875,0 l0,-20.640625 l29.765625,-7.359375 l0,28 l20.796875,0 l0,2.875 l-20.796875,0 l0,53.921875 q0,7.515625 1.515625,11.046875 q1.53125,3.515625 6.328125,3.515625 q4.796875,0 8.390625,-4.796875 q3.609375,-4.8125 4.71875,-13.125 l2.734375,0.31250000000000266 q-1.28125,11.046875 -7.046875,17.53125 q-5.765625,6.46875 -19.046875,6.46875 q-13.265625,0 -20.3125,-5.265625 q-7.046875,-5.28125 -7.046875,-19.203125 zm97.13376,24.46875 q-20.640625,0 -30.96875,-10.640625 q-10.3125,-10.640625 -10.3125,-29.59375 q0,-18.953125 11.59375,-29.03125 q11.59375,-10.09375 29.515625,-10.09375 q36.328125,0 34.890625,36.484375 l-45.125,0 l0,6.234375 q0,15.6875 4,23.6875 q4,8 13.921875,8 q18.5625,0 24.3125,-19.84375 l2.890625,0.48437500000000266 q-3.046875,11.515625 -10.96875,17.921875 q-7.921875,6.390625 -23.75,6.390625 zm-10.25,-46.078125 l16.484375,0 l0,-7.828125 q0,-12.96875 -1.53125,-17.6875 q-1.515625,-4.71875 -6.078125,-4.71875 q-4.546875,0 -6.71875,5.046875 q-2.15625,5.03125 -2.15625,17.359375 l0,7.828125 zm104.16943,-27.203125 q-5.921875,0 -10.40625,7.6875 q-4.484375,7.6875 -4.484375,18.234375 l0,42.890625 l11.359375,0 l0,2.875 l-49.921875,0 l0,-2.875 l8.8125,0 l0,-70.40625 l-8.8125,0 l0,-2.875 l38.5625,0 l0,15.359375 q2.078125,-8.15625 8,-12.5625 q5.921875,-4.40625 13.4375,-4.40625 q7.53125,0 12.25,4.25 q4.71875,4.234375 4.71875,12 q0,7.75 -3.53125,11.921875 q-3.515625,4.15625 -10.796875,4.15625 q-7.28125,0 -10.71875,-4.796875 q-3.4375,-4.8125 -0.8750000000000053,-13.28125 l5.765625,0 q4,-8.171875 -3.359375,-8.171875 zm49.262573,-15.515625 q-8.46875,0 -12.078125,-4.3125 q-3.59375,-4.328125 -3.59375,-10.71875 q0,-6.40625 3.921875,-10.5625 q3.921875,-4.15625 11.921875,-4.15625 q8,0 12.15625,3.765625 q4.15625,3.75 4.15625,10.71875 q0,6.953125 -4,11.109375 q-4,4.15625 -12.484375,4.15625 zm-24.15625,11.046875 l39.203125,0 l0,73.28125 l8.96875,0 l0,2.875 l-47.53125,0 l0,-2.875 l8.8125,0 l0,-70.40625 l-9.453125,0 l0,-2.875 zm59.360596,53.28125 l0,-50.40625 l-8.796875,0 l0,-2.875 l8.796875,0 l0,-20.640625 l29.765625,-7.359375 l0,28 l20.796875,0 l0,2.875 l-20.796875,0 l0,53.921875 q0,7.515625 1.515625,11.046875 q1.53125,3.515625 6.328125,3.515625 q4.796875,0 8.390625,-4.796875 q3.609375,-4.8125 4.71875,-13.125 l2.734375,0.31250000000000266 q-1.28125,11.046875 -7.046875,17.53125 q-5.765625,6.46875 -19.046875,6.46875 q-13.265625,0 -20.3125,-5.265625 q-7.046875,-5.28125 -7.046875,-19.203125 z" fill-rule="nonzero" id="svg_8" class=""/><path fill="#000000" d="m729.17834,244.0050252645874 l0,-2.875 l46.40625,0 l0,2.875 l-8.640625,0 l17.4375,53.125 l18.5625,-53.125 l-10.71875,0 l0,-2.875 l22.5625,0 l0,2.875 l-8,0 l-29.921875,86.234375 q-5.28125,15.046875 -11.84375,21.046875 q-6.5625,6 -16,6 q-9.4375,0 -14.890625,-4.328125 q-5.4375,-4.3125 -5.4375,-11.03125 q0,-6.71875 3.515625,-10.25 q3.53125,-3.515625 9.296875,-3.515625 q13.28125,0 13.28125,11.046875 q0,2.390625 -0.9687500000000053,5.765625 l-5.59375,0 q-1.28125,3.671875 -0.32812500000000266,6.0625 q0.9687500000000053,2.40625 4.328125,2.40625 q6.5625,0 11.671875,-6.484375 q5.125,-6.46875 9.765625,-19.75 l3.515625,-9.921875 l-14.078125,0 l-27.359375,-73.28125 l-6.5625,0 z" fill-rule="nonzero" id="svg_9" class=""/><path fill="#000000" d="m729.17834,244.0050252645874 l0,-2.875 l46.40625,0 l0,2.875 l-8.640625,0 l17.4375,53.125 l18.5625,-53.125 l-10.71875,0 l0,-2.875 l22.5625,0 l0,2.875 l-8,0 l-29.921875,86.234375 q-5.28125,15.046875 -11.84375,21.046875 q-6.5625,6 -16,6 q-9.4375,0 -14.890625,-4.328125 q-5.4375,-4.3125 -5.4375,-11.03125 q0,-6.71875 3.515625,-10.25 q3.53125,-3.515625 9.296875,-3.515625 q13.28125,0 13.28125,11.046875 q0,2.390625 -0.9687500000000054,5.765625 l-5.59375,0 q-1.28125,3.671875 -0.3281250000000027,6.0625 q0.9687500000000054,2.40625 4.328125,2.40625 q6.5625,0 11.671875,-6.484375 q5.125,-6.46875 9.765625,-19.75 l3.515625,-9.921875 l-14.078125,0 l-27.359375,-73.28125 l-6.5625,0 z" fill-rule="nonzero" class="" id="svg_2"/></g></svg>